<?xml version="1.0" encoding="UTF-8" standalone="no"?>
<!DOCTYPE svg PUBLIC "-//W3C//DTD SVG 1.1//EN"
 "http://www.w3.org/Graphics/SVG/1.1/DTD/svg11.dtd">
<!-- Generated by graphviz version 2.43.0 (0)
 -->
<!-- Title: %3 Pages: 1 -->
<svg width="486pt" height="322pt"
 viewBox="0.00 0.00 485.99 321.91" xmlns="http://www.w3.org/2000/svg" xmlns:xlink="http://www.w3.org/1999/xlink">
<g id="graph0" class="graph" transform="scale(1 1) rotate(0) translate(4 317.91)">
<title>%3</title>
<polygon fill="white" stroke="transparent" points="-4,4 -4,-317.91 481.99,-317.91 481.99,4 -4,4"/>
<g id="clust1" class="cluster">
<title>cluster__obs__ (137)</title>
<path fill="none" stroke="black" d="M182.5,-8C182.5,-8 290.5,-8 290.5,-8 296.5,-8 302.5,-14 302.5,-20 302.5,-20 302.5,-198.95 302.5,-198.95 302.5,-204.95 296.5,-210.95 290.5,-210.95 290.5,-210.95 182.5,-210.95 182.5,-210.95 176.5,-210.95 170.5,-204.95 170.5,-198.95 170.5,-198.95 170.5,-20 170.5,-20 170.5,-14 176.5,-8 182.5,-8"/>
<text text-anchor="middle" x="247.5" y="-15.8" font-family="Times,serif" font-size="14.00">__obs__ (137)</text>
</g>
<!-- con -->
<g id="node1" class="node">
<title>con</title>
<ellipse fill="none" stroke="black" cx="49.5" cy="-276.43" rx="49.49" ry="37.45"/>
<text text-anchor="middle" x="49.5" y="-287.73" font-family="Times,serif" font-size="14.00">con</text>
<text text-anchor="middle" x="49.5" y="-272.73" font-family="Times,serif" font-size="14.00">~</text>
<text text-anchor="middle" x="49.5" y="-257.73" font-family="Times,serif" font-size="14.00">Normal</text>
</g>
<!-- p -->
<g id="node5" class="node">
<title>p</title>
<polygon fill="none" stroke="black" points="293.5,-202.95 179.5,-202.95 179.5,-149.95 293.5,-149.95 293.5,-202.95"/>
<text text-anchor="middle" x="236.5" y="-187.75" font-family="Times,serif" font-size="14.00">p</text>
<text text-anchor="middle" x="236.5" y="-172.75" font-family="Times,serif" font-size="14.00">~</text>
<text text-anchor="middle" x="236.5" y="-157.75" font-family="Times,serif" font-size="14.00">Deterministic</text>
</g>
<!-- con&#45;&gt;p -->
<g id="edge1" class="edge">
<title>con&#45;&gt;p</title>
<path fill="none" stroke="black" d="M86.92,-251.48C94.01,-247.17 101.42,-242.83 108.5,-238.95 128.47,-228.02 150.69,-216.97 170.94,-207.31"/>
<polygon fill="black" stroke="black" points="172.55,-210.42 180.09,-202.98 169.55,-204.1 172.55,-210.42"/>
</g>
<!-- race&amp;con -->
<g id="node2" class="node">
<title>race&amp;con</title>
<ellipse fill="none" stroke="black" cx="171.5" cy="-276.43" rx="54.39" ry="37.45"/>
<text text-anchor="middle" x="171.5" y="-287.73" font-family="Times,serif" font-size="14.00">race:con</text>
<text text-anchor="middle" x="171.5" y="-272.73" font-family="Times,serif" font-size="14.00">~</text>
<text text-anchor="middle" x="171.5" y="-257.73" font-family="Times,serif" font-size="14.00">Normal</text>
</g>
<!-- race&amp;con&#45;&gt;p -->
<g id="edge2" class="edge">
<title>race&amp;con&#45;&gt;p</title>
<path fill="none" stroke="black" d="M193.68,-241.99C200.23,-232.12 207.39,-221.33 213.96,-211.43"/>
<polygon fill="black" stroke="black" points="216.93,-213.28 219.54,-203.01 211.09,-209.41 216.93,-213.28"/>
</g>
<!-- Intercept -->
<g id="node3" class="node">
<title>Intercept</title>
<ellipse fill="none" stroke="black" cx="302.5" cy="-276.43" rx="58.88" ry="37.45"/>
<text text-anchor="middle" x="302.5" y="-287.73" font-family="Times,serif" font-size="14.00">Intercept</text>
<text text-anchor="middle" x="302.5" y="-272.73" font-family="Times,serif" font-size="14.00">~</text>
<text text-anchor="middle" x="302.5" y="-257.73" font-family="Times,serif" font-size="14.00">Normal</text>
</g>
<!-- Intercept&#45;&gt;p -->
<g id="edge3" class="edge">
<title>Intercept&#45;&gt;p</title>
<path fill="none" stroke="black" d="M279.78,-241.71C273.21,-231.95 266.03,-221.29 259.44,-211.51"/>
<polygon fill="black" stroke="black" points="262.32,-209.52 253.83,-203.18 256.51,-213.43 262.32,-209.52"/>
</g>
<!-- race -->
<g id="node4" class="node">
<title>race</title>
<ellipse fill="none" stroke="black" cx="428.5" cy="-276.43" rx="49.49" ry="37.45"/>
<text text-anchor="middle" x="428.5" y="-287.73" font-family="Times,serif" font-size="14.00">race</text>
<text text-anchor="middle" x="428.5" y="-272.73" font-family="Times,serif" font-size="14.00">~</text>
<text text-anchor="middle" x="428.5" y="-257.73" font-family="Times,serif" font-size="14.00">Normal</text>
</g>
<!-- race&#45;&gt;p -->
<g id="edge4" class="edge">
<title>race&#45;&gt;p</title>
<path fill="none" stroke="black" d="M391.49,-251.15C384.6,-246.92 377.4,-242.69 370.5,-238.95 348.93,-227.28 324.73,-215.74 302.9,-205.85"/>
<polygon fill="black" stroke="black" points="304.26,-202.63 293.7,-201.72 301.39,-209.01 304.26,-202.63"/>
</g>
<!-- dohire -->
<g id="node6" class="node">
<title>dohire</title>
<ellipse fill="lightgrey" stroke="black" cx="236.5" cy="-76.48" rx="57.97" ry="37.45"/>
<text text-anchor="middle" x="236.5" y="-87.78" font-family="Times,serif" font-size="14.00">dohire</text>
<text text-anchor="middle" x="236.5" y="-72.78" font-family="Times,serif" font-size="14.00">~</text>
<text text-anchor="middle" x="236.5" y="-57.78" font-family="Times,serif" font-size="14.00">Bernoulli</text>
</g>
<!-- p&#45;&gt;dohire -->
<g id="edge5" class="edge">
<title>p&#45;&gt;dohire</title>
<path fill="none" stroke="black" d="M236.5,-149.71C236.5,-141.89 236.5,-133.03 236.5,-124.27"/>
<polygon fill="black" stroke="black" points="240,-124.1 236.5,-114.1 233,-124.1 240,-124.1"/>
</g>
</g>
</svg>
