<?xml version="1.0" encoding="UTF-8" standalone="no"?>
<!DOCTYPE svg PUBLIC "-//W3C//DTD SVG 1.1//EN"
 "http://www.w3.org/Graphics/SVG/1.1/DTD/svg11.dtd">
<!-- Generated by graphviz version 2.43.0 (0)
 -->
<!-- Title: %3 Pages: 1 -->
<svg width="167pt" height="322pt"
 viewBox="0.00 0.00 167.00 321.91" xmlns="http://www.w3.org/2000/svg" xmlns:xlink="http://www.w3.org/1999/xlink">
<g id="graph0" class="graph" transform="scale(1 1) rotate(0) translate(4 317.91)">
<title>%3</title>
<polygon fill="white" stroke="transparent" points="-4,4 -4,-317.91 163,-317.91 163,4 -4,4"/>
<g id="clust1" class="cluster">
<title>clusterresponse_id (235)</title>
<path fill="none" stroke="black" d="M20,-8C20,-8 139,-8 139,-8 145,-8 151,-14 151,-20 151,-20 151,-198.95 151,-198.95 151,-204.95 145,-210.95 139,-210.95 139,-210.95 20,-210.95 20,-210.95 14,-210.95 8,-204.95 8,-198.95 8,-198.95 8,-20 8,-20 8,-14 14,-8 20,-8"/>
<text text-anchor="middle" x="79.5" y="-15.8" font-family="Times,serif" font-size="14.00">response_id (235)</text>
</g>
<!-- sayhire_obs -->
<g id="node1" class="node">
<title>sayhire_obs</title>
<path fill="lightgrey" stroke="black" d="M117.5,-92C117.5,-92 40.5,-92 40.5,-92 34.5,-92 28.5,-86 28.5,-80 28.5,-80 28.5,-51 28.5,-51 28.5,-45 34.5,-39 40.5,-39 40.5,-39 117.5,-39 117.5,-39 123.5,-39 129.5,-45 129.5,-51 129.5,-51 129.5,-80 129.5,-80 129.5,-86 123.5,-92 117.5,-92"/>
<text text-anchor="middle" x="79" y="-76.8" font-family="Times,serif" font-size="14.00">sayhire_obs</text>
<text text-anchor="middle" x="79" y="-61.8" font-family="Times,serif" font-size="14.00">~</text>
<text text-anchor="middle" x="79" y="-46.8" font-family="Times,serif" font-size="14.00">Data</text>
</g>
<!-- sayhire -->
<g id="node2" class="node">
<title>sayhire</title>
<ellipse fill="lightgrey" stroke="black" cx="79" cy="-165.48" rx="57.97" ry="37.45"/>
<text text-anchor="middle" x="79" y="-176.78" font-family="Times,serif" font-size="14.00">sayhire</text>
<text text-anchor="middle" x="79" y="-161.78" font-family="Times,serif" font-size="14.00">~</text>
<text text-anchor="middle" x="79" y="-146.78" font-family="Times,serif" font-size="14.00">Bernoulli</text>
</g>
<!-- sayhire&#45;&gt;sayhire_obs -->
<g id="edge1" class="edge">
<title>sayhire&#45;&gt;sayhire_obs</title>
<path fill="none" stroke="black" d="M79,-127.99C79,-119.58 79,-110.63 79,-102.25"/>
<polygon fill="black" stroke="black" points="82.5,-102.01 79,-92.01 75.5,-102.01 82.5,-102.01"/>
</g>
<!-- p_sayhire -->
<g id="node3" class="node">
<title>p_sayhire</title>
<ellipse fill="none" stroke="black" cx="79" cy="-276.43" rx="60.21" ry="37.45"/>
<text text-anchor="middle" x="79" y="-287.73" font-family="Times,serif" font-size="14.00">p_sayhire</text>
<text text-anchor="middle" x="79" y="-272.73" font-family="Times,serif" font-size="14.00">~</text>
<text text-anchor="middle" x="79" y="-257.73" font-family="Times,serif" font-size="14.00">Beta</text>
</g>
<!-- p_sayhire&#45;&gt;sayhire -->
<g id="edge2" class="edge">
<title>p_sayhire&#45;&gt;sayhire</title>
<path fill="none" stroke="black" d="M79,-238.85C79,-230.67 79,-221.89 79,-213.37"/>
<polygon fill="black" stroke="black" points="82.5,-213.15 79,-203.15 75.5,-213.15 82.5,-213.15"/>
</g>
</g>
</svg>
