<?xml version="1.0" encoding="UTF-8" standalone="no"?>
<!DOCTYPE svg PUBLIC "-//W3C//DTD SVG 1.1//EN"
 "http://www.w3.org/Graphics/SVG/1.1/DTD/svg11.dtd">
<!-- Generated by graphviz version 12.2.1 (20241206.2353)
 -->
<!-- Pages: 1 -->
<svg width="664pt" height="791pt"
 viewBox="0.00 0.00 664.00 791.18" xmlns="http://www.w3.org/2000/svg" xmlns:xlink="http://www.w3.org/1999/xlink">
<g id="graph0" class="graph" transform="scale(1 1) rotate(0) translate(4 787.18)">
<polygon fill="white" stroke="none" points="-4,4 -4,-787.18 660,-787.18 660,4 -4,4"/>
<g id="clust1" class="cluster">
<title>clusterfirm_id (43)</title>
<path fill="none" stroke="black" d="M138,-231.32C138,-231.32 356,-231.32 356,-231.32 362,-231.32 368,-237.32 368,-243.32 368,-243.32 368,-649.95 368,-649.95 368,-655.95 362,-661.95 356,-661.95 356,-661.95 138,-661.95 138,-661.95 132,-661.95 126,-655.95 126,-649.95 126,-649.95 126,-243.32 126,-243.32 126,-237.32 132,-231.32 138,-231.32"/>
<text text-anchor="middle" x="326.25" y="-238.52" font-family="Times,serif" font-size="14.00">firm_id (43)</text>
</g>
<g id="clust2" class="cluster">
<title>clustersurvey_id (172)</title>
<path fill="none" stroke="black" d="M20,-113.41C20,-113.41 106,-113.41 106,-113.41 112,-113.41 118,-119.41 118,-125.41 118,-125.41 118,-329.23 118,-329.23 118,-335.23 112,-341.23 106,-341.23 106,-341.23 20,-341.23 20,-341.23 14,-341.23 8,-335.23 8,-329.23 8,-329.23 8,-125.41 8,-125.41 8,-119.41 14,-113.41 20,-113.41"/>
<text text-anchor="middle" x="66.88" y="-120.61" font-family="Times,serif" font-size="14.00">survey_id (172)</text>
</g>
<g id="clust3" class="cluster">
<title>clusteraudit_id (1720)</title>
<path fill="none" stroke="black" d="M260,-8C260,-8 346,-8 346,-8 352,-8 358,-14 358,-20 358,-20 358,-211.32 358,-211.32 358,-217.32 352,-223.32 346,-223.32 346,-223.32 260,-223.32 260,-223.32 254,-223.32 248,-217.32 248,-211.32 248,-211.32 248,-20 248,-20 248,-14 254,-8 260,-8"/>
<text text-anchor="middle" x="308" y="-15.2" font-family="Times,serif" font-size="14.00">audit_id (1720)</text>
</g>
<g id="clust4" class="cluster">
<title>clusterregion (2)</title>
<path fill="none" stroke="black" d="M388,-552.04C388,-552.04 636,-552.04 636,-552.04 642,-552.04 648,-558.04 648,-564.04 648,-564.04 648,-661.86 648,-661.86 648,-667.86 642,-673.86 636,-673.86 636,-673.86 388,-673.86 388,-673.86 382,-673.86 376,-667.86 376,-661.86 376,-661.86 376,-564.04 376,-564.04 376,-558.04 382,-552.04 388,-552.04"/>
<text text-anchor="middle" x="613" y="-559.24" font-family="Times,serif" font-size="14.00">region (2)</text>
</g>
<!-- bscore_firm -->
<g id="node1" class="node">
<title>bscore_firm</title>
<polygon fill="none" stroke="black" points="348.12,-426.73 257.88,-426.73 257.88,-369.23 348.12,-369.23 348.12,-426.73"/>
<text text-anchor="middle" x="303" y="-409.43" font-family="Times,serif" font-size="14.00">bscore_firm</text>
<text text-anchor="middle" x="303" y="-392.93" font-family="Times,serif" font-size="14.00">~</text>
<text text-anchor="middle" x="303" y="-376.43" font-family="Times,serif" font-size="14.00">Deterministic</text>
</g>
<!-- p_dohire -->
<g id="node5" class="node">
<title>p_dohire</title>
<polygon fill="none" stroke="black" points="348.12,-321.32 257.88,-321.32 257.88,-263.82 348.12,-263.82 348.12,-321.32"/>
<text text-anchor="middle" x="303" y="-304.02" font-family="Times,serif" font-size="14.00">p_dohire</text>
<text text-anchor="middle" x="303" y="-287.52" font-family="Times,serif" font-size="14.00">~</text>
<text text-anchor="middle" x="303" y="-271.02" font-family="Times,serif" font-size="14.00">Deterministic</text>
</g>
<!-- bscore_firm&#45;&gt;p_dohire -->
<g id="edge13" class="edge">
<title>bscore_firm&#45;&gt;p_dohire</title>
<path fill="none" stroke="black" d="M303,-368.99C303,-357.84 303,-344.81 303,-332.75"/>
<polygon fill="black" stroke="black" points="306.5,-333.09 303,-323.09 299.5,-333.09 306.5,-333.09"/>
</g>
<!-- ascore_firm -->
<g id="node2" class="node">
<title>ascore_firm</title>
<ellipse fill="none" stroke="black" cx="191" cy="-503.38" rx="57.45" ry="40.66"/>
<text text-anchor="middle" x="191" y="-514.83" font-family="Times,serif" font-size="14.00">ascore_firm</text>
<text text-anchor="middle" x="191" y="-498.33" font-family="Times,serif" font-size="14.00">~</text>
<text text-anchor="middle" x="191" y="-481.83" font-family="Times,serif" font-size="14.00">Normal</text>
</g>
<!-- ascore_firm&#45;&gt;bscore_firm -->
<g id="edge9" class="edge">
<title>ascore_firm&#45;&gt;bscore_firm</title>
<path fill="none" stroke="black" d="M225.52,-470.51C237.74,-459.23 251.57,-446.46 264.12,-434.87"/>
<polygon fill="black" stroke="black" points="266.49,-437.45 271.47,-428.09 261.75,-432.3 266.49,-437.45"/>
</g>
<!-- p_sayhire -->
<g id="node6" class="node">
<title>p_sayhire</title>
<polygon fill="none" stroke="black" points="230.12,-426.73 139.88,-426.73 139.88,-369.23 230.12,-369.23 230.12,-426.73"/>
<text text-anchor="middle" x="185" y="-409.43" font-family="Times,serif" font-size="14.00">p_sayhire</text>
<text text-anchor="middle" x="185" y="-392.93" font-family="Times,serif" font-size="14.00">~</text>
<text text-anchor="middle" x="185" y="-376.43" font-family="Times,serif" font-size="14.00">Deterministic</text>
</g>
<!-- ascore_firm&#45;&gt;p_sayhire -->
<g id="edge11" class="edge">
<title>ascore_firm&#45;&gt;p_sayhire</title>
<path fill="none" stroke="black" d="M188.68,-462.4C188.22,-454.55 187.75,-446.32 187.29,-438.49"/>
<polygon fill="black" stroke="black" points="190.79,-438.29 186.71,-428.51 183.8,-438.7 190.79,-438.29"/>
</g>
<!-- abd_firm -->
<g id="node3" class="node">
<title>abd_firm</title>
<ellipse fill="none" stroke="black" cx="313" cy="-503.38" rx="46.85" ry="40.66"/>
<text text-anchor="middle" x="313" y="-514.83" font-family="Times,serif" font-size="14.00">abd_firm</text>
<text text-anchor="middle" x="313" y="-498.33" font-family="Times,serif" font-size="14.00">~</text>
<text text-anchor="middle" x="313" y="-481.83" font-family="Times,serif" font-size="14.00">Normal</text>
</g>
<!-- abd_firm&#45;&gt;bscore_firm -->
<g id="edge10" class="edge">
<title>abd_firm&#45;&gt;bscore_firm</title>
<path fill="none" stroke="black" d="M309.13,-462.4C308.37,-454.46 307.56,-446.13 306.79,-438.21"/>
<polygon fill="black" stroke="black" points="310.3,-438.13 305.86,-428.51 303.33,-438.8 310.3,-438.13"/>
</g>
<!-- region_obs -->
<g id="node4" class="node">
<title>region_obs</title>
<path fill="lightgrey" stroke="black" d="M278,-653.95C278,-653.95 226,-653.95 226,-653.95 220,-653.95 214,-647.95 214,-641.95 214,-641.95 214,-608.45 214,-608.45 214,-602.45 220,-596.45 226,-596.45 226,-596.45 278,-596.45 278,-596.45 284,-596.45 290,-602.45 290,-608.45 290,-608.45 290,-641.95 290,-641.95 290,-647.95 284,-653.95 278,-653.95"/>
<text text-anchor="middle" x="252" y="-636.65" font-family="Times,serif" font-size="14.00">region_obs</text>
<text text-anchor="middle" x="252" y="-620.15" font-family="Times,serif" font-size="14.00">~</text>
<text text-anchor="middle" x="252" y="-603.65" font-family="Times,serif" font-size="14.00">Data</text>
</g>
<!-- region_obs&#45;&gt;ascore_firm -->
<g id="edge6" class="edge">
<title>region_obs&#45;&gt;ascore_firm</title>
<path fill="none" stroke="black" d="M237.7,-596.11C231,-582.96 222.84,-566.93 215.22,-551.97"/>
<polygon fill="black" stroke="black" points="218.41,-550.5 210.75,-543.18 212.17,-553.68 218.41,-550.5"/>
</g>
<!-- region_obs&#45;&gt;abd_firm -->
<g id="edge8" class="edge">
<title>region_obs&#45;&gt;abd_firm</title>
<path fill="none" stroke="black" d="M266.3,-596.11C273.18,-582.61 281.6,-566.06 289.39,-550.76"/>
<polygon fill="black" stroke="black" points="292.29,-552.78 293.71,-542.28 286.05,-549.6 292.29,-552.78"/>
</g>
<!-- dohire -->
<g id="node10" class="node">
<title>dohire</title>
<ellipse fill="lightgrey" stroke="black" cx="303" cy="-174.66" rx="47.38" ry="40.66"/>
<text text-anchor="middle" x="303" y="-186.11" font-family="Times,serif" font-size="14.00">dohire</text>
<text text-anchor="middle" x="303" y="-169.61" font-family="Times,serif" font-size="14.00">~</text>
<text text-anchor="middle" x="303" y="-153.11" font-family="Times,serif" font-size="14.00">Bernoulli</text>
</g>
<!-- p_dohire&#45;&gt;dohire -->
<g id="edge14" class="edge">
<title>p_dohire&#45;&gt;dohire</title>
<path fill="none" stroke="black" d="M303,-263.51C303,-252.53 303,-239.58 303,-227.05"/>
<polygon fill="black" stroke="black" points="306.5,-227.24 303,-217.24 299.5,-227.24 306.5,-227.24"/>
</g>
<!-- sayhire -->
<g id="node8" class="node">
<title>sayhire</title>
<ellipse fill="lightgrey" stroke="black" cx="63" cy="-292.57" rx="47.38" ry="40.66"/>
<text text-anchor="middle" x="63" y="-304.02" font-family="Times,serif" font-size="14.00">sayhire</text>
<text text-anchor="middle" x="63" y="-287.52" font-family="Times,serif" font-size="14.00">~</text>
<text text-anchor="middle" x="63" y="-271.02" font-family="Times,serif" font-size="14.00">Bernoulli</text>
</g>
<!-- p_sayhire&#45;&gt;sayhire -->
<g id="edge12" class="edge">
<title>p_sayhire&#45;&gt;sayhire</title>
<path fill="none" stroke="black" d="M151.99,-368.99C137.59,-356.79 120.54,-342.34 105.24,-329.37"/>
<polygon fill="black" stroke="black" points="107.51,-326.71 97.62,-322.91 102.99,-332.05 107.51,-326.71"/>
</g>
<!-- sayhire_obs -->
<g id="node7" class="node">
<title>sayhire_obs</title>
<path fill="lightgrey" stroke="black" d="M91.25,-203.41C91.25,-203.41 34.75,-203.41 34.75,-203.41 28.75,-203.41 22.75,-197.41 22.75,-191.41 22.75,-191.41 22.75,-157.91 22.75,-157.91 22.75,-151.91 28.75,-145.91 34.75,-145.91 34.75,-145.91 91.25,-145.91 91.25,-145.91 97.25,-145.91 103.25,-151.91 103.25,-157.91 103.25,-157.91 103.25,-191.41 103.25,-191.41 103.25,-197.41 97.25,-203.41 91.25,-203.41"/>
<text text-anchor="middle" x="63" y="-186.11" font-family="Times,serif" font-size="14.00">sayhire_obs</text>
<text text-anchor="middle" x="63" y="-169.61" font-family="Times,serif" font-size="14.00">~</text>
<text text-anchor="middle" x="63" y="-153.11" font-family="Times,serif" font-size="14.00">Data</text>
</g>
<!-- sayhire&#45;&gt;sayhire_obs -->
<g id="edge1" class="edge">
<title>sayhire&#45;&gt;sayhire_obs</title>
<path fill="none" stroke="black" d="M63,-251.68C63,-239.79 63,-226.78 63,-214.93"/>
<polygon fill="black" stroke="black" points="66.5,-215.08 63,-205.08 59.5,-215.08 66.5,-215.08"/>
</g>
<!-- dohire_obs -->
<g id="node9" class="node">
<title>dohire_obs</title>
<path fill="lightgrey" stroke="black" d="M329,-98C329,-98 277,-98 277,-98 271,-98 265,-92 265,-86 265,-86 265,-52.5 265,-52.5 265,-46.5 271,-40.5 277,-40.5 277,-40.5 329,-40.5 329,-40.5 335,-40.5 341,-46.5 341,-52.5 341,-52.5 341,-86 341,-86 341,-92 335,-98 329,-98"/>
<text text-anchor="middle" x="303" y="-80.7" font-family="Times,serif" font-size="14.00">dohire_obs</text>
<text text-anchor="middle" x="303" y="-64.2" font-family="Times,serif" font-size="14.00">~</text>
<text text-anchor="middle" x="303" y="-47.7" font-family="Times,serif" font-size="14.00">Data</text>
</g>
<!-- dohire&#45;&gt;dohire_obs -->
<g id="edge2" class="edge">
<title>dohire&#45;&gt;dohire_obs</title>
<path fill="none" stroke="black" d="M303,-133.68C303,-125.83 303,-117.6 303,-109.76"/>
<polygon fill="black" stroke="black" points="306.5,-109.79 303,-99.79 299.5,-109.79 306.5,-109.79"/>
</g>
<!-- abd_city -->
<g id="node11" class="node">
<title>abd_city</title>
<ellipse fill="none" stroke="black" cx="586" cy="-742.52" rx="57.98" ry="40.66"/>
<text text-anchor="middle" x="586" y="-753.97" font-family="Times,serif" font-size="14.00">abd_city</text>
<text text-anchor="middle" x="586" y="-737.47" font-family="Times,serif" font-size="14.00">~</text>
<text text-anchor="middle" x="586" y="-720.97" font-family="Times,serif" font-size="14.00">HalfNormal</text>
</g>
<!-- abd_region -->
<g id="node13" class="node">
<title>abd_region</title>
<ellipse fill="none" stroke="black" cx="586" cy="-625.2" rx="54.27" ry="40.66"/>
<text text-anchor="middle" x="586" y="-636.65" font-family="Times,serif" font-size="14.00">abd_region</text>
<text text-anchor="middle" x="586" y="-620.15" font-family="Times,serif" font-size="14.00">~</text>
<text text-anchor="middle" x="586" y="-603.65" font-family="Times,serif" font-size="14.00">Normal</text>
</g>
<!-- abd_city&#45;&gt;abd_region -->
<g id="edge4" class="edge">
<title>abd_city&#45;&gt;abd_region</title>
<path fill="none" stroke="black" d="M586,-701.51C586,-693.73 586,-685.47 586,-677.39"/>
<polygon fill="black" stroke="black" points="589.5,-677.65 586,-667.65 582.5,-677.65 589.5,-677.65"/>
</g>
<!-- ascore_city -->
<g id="node12" class="node">
<title>ascore_city</title>
<ellipse fill="none" stroke="black" cx="449" cy="-742.52" rx="54.8" ry="40.66"/>
<text text-anchor="middle" x="449" y="-753.97" font-family="Times,serif" font-size="14.00">ascore_city</text>
<text text-anchor="middle" x="449" y="-737.47" font-family="Times,serif" font-size="14.00">~</text>
<text text-anchor="middle" x="449" y="-720.97" font-family="Times,serif" font-size="14.00">Normal</text>
</g>
<!-- ascore_region -->
<g id="node14" class="node">
<title>ascore_region</title>
<ellipse fill="none" stroke="black" cx="449" cy="-625.2" rx="64.88" ry="40.66"/>
<text text-anchor="middle" x="449" y="-636.65" font-family="Times,serif" font-size="14.00">ascore_region</text>
<text text-anchor="middle" x="449" y="-620.15" font-family="Times,serif" font-size="14.00">~</text>
<text text-anchor="middle" x="449" y="-603.65" font-family="Times,serif" font-size="14.00">Normal</text>
</g>
<!-- ascore_city&#45;&gt;ascore_region -->
<g id="edge3" class="edge">
<title>ascore_city&#45;&gt;ascore_region</title>
<path fill="none" stroke="black" d="M449,-701.51C449,-693.73 449,-685.47 449,-677.39"/>
<polygon fill="black" stroke="black" points="452.5,-677.65 449,-667.65 445.5,-677.65 452.5,-677.65"/>
</g>
<!-- abd_region&#45;&gt;abd_firm -->
<g id="edge7" class="edge">
<title>abd_region&#45;&gt;abd_firm</title>
<path fill="none" stroke="black" d="M562.05,-588.22C551.54,-575 538.14,-561.08 523,-552.04 476.59,-524.34 415.62,-512.73 371.34,-507.87"/>
<polygon fill="black" stroke="black" points="371.69,-504.39 361.39,-506.87 370.99,-511.35 371.69,-504.39"/>
</g>
<!-- ascore_region&#45;&gt;ascore_firm -->
<g id="edge5" class="edge">
<title>ascore_region&#45;&gt;ascore_firm</title>
<path fill="none" stroke="black" d="M420.46,-588.42C407.29,-574.55 390.47,-560.1 372,-552.04 325.04,-531.56 305.87,-559.44 257,-544.04 251.85,-542.42 246.69,-540.32 241.64,-537.94"/>
<polygon fill="black" stroke="black" points="243.32,-534.87 232.82,-533.41 240.11,-541.09 243.32,-534.87"/>
</g>
</g>
</svg>
