<?xml version="1.0" encoding="UTF-8" standalone="no"?>
<!DOCTYPE svg PUBLIC "-//W3C//DTD SVG 1.1//EN"
 "http://www.w3.org/Graphics/SVG/1.1/DTD/svg11.dtd">
<!-- Generated by graphviz version 12.2.1 (20241206.2353)
 -->
<!-- Pages: 1 -->
<svg width="308pt" height="686pt"
 viewBox="0.00 0.00 308.00 685.77" xmlns="http://www.w3.org/2000/svg" xmlns:xlink="http://www.w3.org/1999/xlink">
<g id="graph0" class="graph" transform="scale(1 1) rotate(0) translate(4 681.77)">
<polygon fill="white" stroke="none" points="-4,4 -4,-681.77 304,-681.77 304,4 -4,4"/>
<g id="clust1" class="cluster">
<title>clusterfirm_id (43)</title>
<path fill="none" stroke="black" d="M20,-231.32C20,-231.32 126,-231.32 126,-231.32 132,-231.32 138,-237.32 138,-243.32 138,-243.32 138,-544.54 138,-544.54 138,-550.54 132,-556.54 126,-556.54 126,-556.54 20,-556.54 20,-556.54 14,-556.54 8,-550.54 8,-544.54 8,-544.54 8,-243.32 8,-243.32 8,-237.32 14,-231.32 20,-231.32"/>
<text text-anchor="middle" x="96.25" y="-238.52" font-family="Times,serif" font-size="14.00">firm_id (43)</text>
</g>
<g id="clust2" class="cluster">
<title>clustersurvey_id (172)</title>
<path fill="none" stroke="black" d="M30,-8C30,-8 116,-8 116,-8 122,-8 128,-14 128,-20 128,-20 128,-211.32 128,-211.32 128,-217.32 122,-223.32 116,-223.32 116,-223.32 30,-223.32 30,-223.32 24,-223.32 18,-217.32 18,-211.32 18,-211.32 18,-20 18,-20 18,-14 24,-8 30,-8"/>
<text text-anchor="middle" x="76.88" y="-15.2" font-family="Times,serif" font-size="14.00">survey_id (172)</text>
</g>
<g id="clust3" class="cluster">
<title>clusterregion (2)</title>
<path fill="none" stroke="black" d="M158,-446.63C158,-446.63 280,-446.63 280,-446.63 286,-446.63 292,-452.63 292,-458.63 292,-458.63 292,-556.45 292,-556.45 292,-562.45 286,-568.45 280,-568.45 280,-568.45 158,-568.45 158,-568.45 152,-568.45 146,-562.45 146,-556.45 146,-556.45 146,-458.63 146,-458.63 146,-452.63 152,-446.63 158,-446.63"/>
<text text-anchor="middle" x="257" y="-453.83" font-family="Times,serif" font-size="14.00">region (2)</text>
</g>
<!-- p_sayhire -->
<g id="node1" class="node">
<title>p_sayhire</title>
<polygon fill="none" stroke="black" points="118.12,-321.32 27.88,-321.32 27.88,-263.82 118.12,-263.82 118.12,-321.32"/>
<text text-anchor="middle" x="73" y="-304.02" font-family="Times,serif" font-size="14.00">p_sayhire</text>
<text text-anchor="middle" x="73" y="-287.52" font-family="Times,serif" font-size="14.00">~</text>
<text text-anchor="middle" x="73" y="-271.02" font-family="Times,serif" font-size="14.00">Deterministic</text>
</g>
<!-- sayhire -->
<g id="node5" class="node">
<title>sayhire</title>
<ellipse fill="lightgrey" stroke="black" cx="73" cy="-174.66" rx="47.38" ry="40.66"/>
<text text-anchor="middle" x="73" y="-186.11" font-family="Times,serif" font-size="14.00">sayhire</text>
<text text-anchor="middle" x="73" y="-169.61" font-family="Times,serif" font-size="14.00">~</text>
<text text-anchor="middle" x="73" y="-153.11" font-family="Times,serif" font-size="14.00">Bernoulli</text>
</g>
<!-- p_sayhire&#45;&gt;sayhire -->
<g id="edge6" class="edge">
<title>p_sayhire&#45;&gt;sayhire</title>
<path fill="none" stroke="black" d="M73,-263.51C73,-252.53 73,-239.58 73,-227.05"/>
<polygon fill="black" stroke="black" points="76.5,-227.24 73,-217.24 69.5,-227.24 76.5,-227.24"/>
</g>
<!-- ascore_firm -->
<g id="node2" class="node">
<title>ascore_firm</title>
<ellipse fill="none" stroke="black" cx="73" cy="-397.98" rx="57.45" ry="40.66"/>
<text text-anchor="middle" x="73" y="-409.43" font-family="Times,serif" font-size="14.00">ascore_firm</text>
<text text-anchor="middle" x="73" y="-392.93" font-family="Times,serif" font-size="14.00">~</text>
<text text-anchor="middle" x="73" y="-376.43" font-family="Times,serif" font-size="14.00">Normal</text>
</g>
<!-- ascore_firm&#45;&gt;p_sayhire -->
<g id="edge5" class="edge">
<title>ascore_firm&#45;&gt;p_sayhire</title>
<path fill="none" stroke="black" d="M73,-357C73,-349.15 73,-340.91 73,-333.08"/>
<polygon fill="black" stroke="black" points="76.5,-333.11 73,-323.11 69.5,-333.11 76.5,-333.11"/>
</g>
<!-- region_obs -->
<g id="node3" class="node">
<title>region_obs</title>
<path fill="lightgrey" stroke="black" d="M99,-548.54C99,-548.54 47,-548.54 47,-548.54 41,-548.54 35,-542.54 35,-536.54 35,-536.54 35,-503.04 35,-503.04 35,-497.04 41,-491.04 47,-491.04 47,-491.04 99,-491.04 99,-491.04 105,-491.04 111,-497.04 111,-503.04 111,-503.04 111,-536.54 111,-536.54 111,-542.54 105,-548.54 99,-548.54"/>
<text text-anchor="middle" x="73" y="-531.24" font-family="Times,serif" font-size="14.00">region_obs</text>
<text text-anchor="middle" x="73" y="-514.74" font-family="Times,serif" font-size="14.00">~</text>
<text text-anchor="middle" x="73" y="-498.24" font-family="Times,serif" font-size="14.00">Data</text>
</g>
<!-- region_obs&#45;&gt;ascore_firm -->
<g id="edge4" class="edge">
<title>region_obs&#45;&gt;ascore_firm</title>
<path fill="none" stroke="black" d="M73,-490.7C73,-478.6 73,-464.05 73,-450.15"/>
<polygon fill="black" stroke="black" points="76.5,-450.2 73,-440.2 69.5,-450.2 76.5,-450.2"/>
</g>
<!-- sayhire_obs -->
<g id="node4" class="node">
<title>sayhire_obs</title>
<path fill="lightgrey" stroke="black" d="M101.25,-98C101.25,-98 44.75,-98 44.75,-98 38.75,-98 32.75,-92 32.75,-86 32.75,-86 32.75,-52.5 32.75,-52.5 32.75,-46.5 38.75,-40.5 44.75,-40.5 44.75,-40.5 101.25,-40.5 101.25,-40.5 107.25,-40.5 113.25,-46.5 113.25,-52.5 113.25,-52.5 113.25,-86 113.25,-86 113.25,-92 107.25,-98 101.25,-98"/>
<text text-anchor="middle" x="73" y="-80.7" font-family="Times,serif" font-size="14.00">sayhire_obs</text>
<text text-anchor="middle" x="73" y="-64.2" font-family="Times,serif" font-size="14.00">~</text>
<text text-anchor="middle" x="73" y="-47.7" font-family="Times,serif" font-size="14.00">Data</text>
</g>
<!-- sayhire&#45;&gt;sayhire_obs -->
<g id="edge1" class="edge">
<title>sayhire&#45;&gt;sayhire_obs</title>
<path fill="none" stroke="black" d="M73,-133.68C73,-125.83 73,-117.6 73,-109.76"/>
<polygon fill="black" stroke="black" points="76.5,-109.79 73,-99.79 69.5,-109.79 76.5,-109.79"/>
</g>
<!-- ascore_city -->
<g id="node6" class="node">
<title>ascore_city</title>
<ellipse fill="none" stroke="black" cx="219" cy="-637.11" rx="54.8" ry="40.66"/>
<text text-anchor="middle" x="219" y="-648.56" font-family="Times,serif" font-size="14.00">ascore_city</text>
<text text-anchor="middle" x="219" y="-632.06" font-family="Times,serif" font-size="14.00">~</text>
<text text-anchor="middle" x="219" y="-615.56" font-family="Times,serif" font-size="14.00">Normal</text>
</g>
<!-- ascore_region -->
<g id="node7" class="node">
<title>ascore_region</title>
<ellipse fill="none" stroke="black" cx="219" cy="-519.79" rx="64.88" ry="40.66"/>
<text text-anchor="middle" x="219" y="-531.24" font-family="Times,serif" font-size="14.00">ascore_region</text>
<text text-anchor="middle" x="219" y="-514.74" font-family="Times,serif" font-size="14.00">~</text>
<text text-anchor="middle" x="219" y="-498.24" font-family="Times,serif" font-size="14.00">Normal</text>
</g>
<!-- ascore_city&#45;&gt;ascore_region -->
<g id="edge2" class="edge">
<title>ascore_city&#45;&gt;ascore_region</title>
<path fill="none" stroke="black" d="M219,-596.1C219,-588.32 219,-580.06 219,-571.98"/>
<polygon fill="black" stroke="black" points="222.5,-572.24 219,-562.24 215.5,-572.24 222.5,-572.24"/>
</g>
<!-- ascore_region&#45;&gt;ascore_firm -->
<g id="edge3" class="edge">
<title>ascore_region&#45;&gt;ascore_firm</title>
<path fill="none" stroke="black" d="M185.1,-484.97C172.02,-472.48 156.69,-458.48 142,-446.63 136.21,-441.97 129.99,-437.27 123.73,-432.73"/>
<polygon fill="black" stroke="black" points="126,-430.05 115.83,-427.1 121.94,-435.75 126,-430.05"/>
</g>
</g>
</svg>
