<?xml version="1.0" encoding="UTF-8" standalone="no"?>
<!DOCTYPE svg PUBLIC "-//W3C//DTD SVG 1.1//EN"
 "http://www.w3.org/Graphics/SVG/1.1/DTD/svg11.dtd">
<!-- Generated by graphviz version 12.2.1 (20241206.2353)
 -->
<!-- Pages: 1 -->
<svg width="443pt" height="345pt"
 viewBox="0.00 0.00 442.54 344.73" xmlns="http://www.w3.org/2000/svg" xmlns:xlink="http://www.w3.org/1999/xlink">
<g id="graph0" class="graph" transform="scale(1 1) rotate(0) translate(4 340.73)">
<polygon fill="white" stroke="none" points="-4,4 -4,-340.73 438.54,-340.73 438.54,4 -4,4"/>
<g id="clust1" class="cluster">
<title>clusterresponse_id (137)</title>
<path fill="none" stroke="black" d="M20,-8C20,-8 109,-8 109,-8 115,-8 121,-14 121,-20 121,-20 121,-316.73 121,-316.73 121,-322.73 115,-328.73 109,-328.73 109,-328.73 20,-328.73 20,-328.73 14,-328.73 8,-322.73 8,-316.73 8,-316.73 8,-20 8,-20 8,-14 14,-8 20,-8"/>
<text text-anchor="middle" x="64.25" y="-15.2" font-family="Times,serif" font-size="14.00">response_id (137)</text>
</g>
<!-- sayhire_obs -->
<g id="node1" class="node">
<title>sayhire_obs</title>
<path fill="lightgrey" stroke="black" d="M94.25,-98C94.25,-98 37.75,-98 37.75,-98 31.75,-98 25.75,-92 25.75,-86 25.75,-86 25.75,-52.5 25.75,-52.5 25.75,-46.5 31.75,-40.5 37.75,-40.5 37.75,-40.5 94.25,-40.5 94.25,-40.5 100.25,-40.5 106.25,-46.5 106.25,-52.5 106.25,-52.5 106.25,-86 106.25,-86 106.25,-92 100.25,-98 94.25,-98"/>
<text text-anchor="middle" x="66" y="-80.7" font-family="Times,serif" font-size="14.00">sayhire_obs</text>
<text text-anchor="middle" x="66" y="-64.2" font-family="Times,serif" font-size="14.00">~</text>
<text text-anchor="middle" x="66" y="-47.7" font-family="Times,serif" font-size="14.00">Data</text>
</g>
<!-- sayhire -->
<g id="node2" class="node">
<title>sayhire</title>
<ellipse fill="lightgrey" stroke="black" cx="66" cy="-174.66" rx="47.38" ry="40.66"/>
<text text-anchor="middle" x="66" y="-186.11" font-family="Times,serif" font-size="14.00">sayhire</text>
<text text-anchor="middle" x="66" y="-169.61" font-family="Times,serif" font-size="14.00">~</text>
<text text-anchor="middle" x="66" y="-153.11" font-family="Times,serif" font-size="14.00">Bernoulli</text>
</g>
<!-- sayhire&#45;&gt;sayhire_obs -->
<g id="edge1" class="edge">
<title>sayhire&#45;&gt;sayhire_obs</title>
<path fill="none" stroke="black" d="M66,-133.68C66,-125.83 66,-117.6 66,-109.76"/>
<polygon fill="black" stroke="black" points="69.5,-109.79 66,-99.79 62.5,-109.79 69.5,-109.79"/>
</g>
<!-- con_obs -->
<g id="node3" class="node">
<title>con_obs</title>
<path fill="lightgrey" stroke="black" d="M84.5,-320.73C84.5,-320.73 47.5,-320.73 47.5,-320.73 41.5,-320.73 35.5,-314.73 35.5,-308.73 35.5,-308.73 35.5,-275.23 35.5,-275.23 35.5,-269.23 41.5,-263.23 47.5,-263.23 47.5,-263.23 84.5,-263.23 84.5,-263.23 90.5,-263.23 96.5,-269.23 96.5,-275.23 96.5,-275.23 96.5,-308.73 96.5,-308.73 96.5,-314.73 90.5,-320.73 84.5,-320.73"/>
<text text-anchor="middle" x="66" y="-303.43" font-family="Times,serif" font-size="14.00">con_obs</text>
<text text-anchor="middle" x="66" y="-286.93" font-family="Times,serif" font-size="14.00">~</text>
<text text-anchor="middle" x="66" y="-270.43" font-family="Times,serif" font-size="14.00">Data</text>
</g>
<!-- con_obs&#45;&gt;sayhire -->
<g id="edge4" class="edge">
<title>con_obs&#45;&gt;sayhire</title>
<path fill="none" stroke="black" d="M66,-262.77C66,-251.94 66,-239.23 66,-226.91"/>
<polygon fill="black" stroke="black" points="69.5,-227.28 66,-217.28 62.5,-227.28 69.5,-227.28"/>
</g>
<!-- p_sayhire_con -->
<g id="node4" class="node">
<title>p_sayhire_con</title>
<ellipse fill="none" stroke="black" cx="196" cy="-291.98" rx="67" ry="40.66"/>
<text text-anchor="middle" x="196" y="-303.43" font-family="Times,serif" font-size="14.00">p_sayhire_con</text>
<text text-anchor="middle" x="196" y="-286.93" font-family="Times,serif" font-size="14.00">~</text>
<text text-anchor="middle" x="196" y="-270.43" font-family="Times,serif" font-size="14.00">Beta</text>
</g>
<!-- p_sayhire_con&#45;&gt;sayhire -->
<g id="edge2" class="edge">
<title>p_sayhire_con&#45;&gt;sayhire</title>
<path fill="none" stroke="black" d="M158.75,-257.93C142.52,-243.54 123.45,-226.62 106.84,-211.88"/>
<polygon fill="black" stroke="black" points="109.34,-209.42 99.53,-205.4 104.69,-214.66 109.34,-209.42"/>
</g>
<!-- p_sayhire_nocon -->
<g id="node5" class="node">
<title>p_sayhire_nocon</title>
<ellipse fill="none" stroke="black" cx="358" cy="-291.98" rx="76.54" ry="40.66"/>
<text text-anchor="middle" x="358" y="-303.43" font-family="Times,serif" font-size="14.00">p_sayhire_nocon</text>
<text text-anchor="middle" x="358" y="-286.93" font-family="Times,serif" font-size="14.00">~</text>
<text text-anchor="middle" x="358" y="-270.43" font-family="Times,serif" font-size="14.00">Beta</text>
</g>
<!-- p_sayhire_nocon&#45;&gt;sayhire -->
<g id="edge3" class="edge">
<title>p_sayhire_nocon&#45;&gt;sayhire</title>
<path fill="none" stroke="black" d="M301.38,-264.09C291.64,-259.69 281.57,-255.27 272,-251.32 221.26,-230.34 162.36,-209 120.57,-194.36"/>
<polygon fill="black" stroke="black" points="121.82,-191.09 111.22,-191.1 119.51,-197.7 121.82,-191.09"/>
</g>
</g>
</svg>
