<?xml version="1.0" encoding="UTF-8" standalone="no"?>
<!DOCTYPE svg PUBLIC "-//W3C//DTD SVG 1.1//EN"
 "http://www.w3.org/Graphics/SVG/1.1/DTD/svg11.dtd">
<!-- Generated by graphviz version 12.2.1 (20241206.2353)
 -->
<!-- Pages: 1 -->
<svg width="568pt" height="438pt"
 viewBox="0.00 0.00 568.01 438.23" xmlns="http://www.w3.org/2000/svg" xmlns:xlink="http://www.w3.org/1999/xlink">
<g id="graph0" class="graph" transform="scale(1 1) rotate(0) translate(4 434.23)">
<polygon fill="white" stroke="none" points="-4,4 -4,-434.23 564.01,-434.23 564.01,4 -4,4"/>
<g id="clust1" class="cluster">
<title>clusterresponse_id (137)</title>
<path fill="none" stroke="black" d="M20,-8C20,-8 156,-8 156,-8 162,-8 168,-14 168,-20 168,-20 168,-410.23 168,-410.23 168,-416.23 162,-422.23 156,-422.23 156,-422.23 20,-422.23 20,-422.23 14,-422.23 8,-416.23 8,-410.23 8,-410.23 8,-20 8,-20 8,-14 14,-8 20,-8"/>
<text text-anchor="middle" x="111.25" y="-15.2" font-family="Times,serif" font-size="14.00">response_id (137)</text>
</g>
<!-- sayhire_obs -->
<g id="node1" class="node">
<title>sayhire_obs</title>
<path fill="lightgrey" stroke="black" d="M141.25,-98C141.25,-98 84.75,-98 84.75,-98 78.75,-98 72.75,-92 72.75,-86 72.75,-86 72.75,-52.5 72.75,-52.5 72.75,-46.5 78.75,-40.5 84.75,-40.5 84.75,-40.5 141.25,-40.5 141.25,-40.5 147.25,-40.5 153.25,-46.5 153.25,-52.5 153.25,-52.5 153.25,-86 153.25,-86 153.25,-92 147.25,-98 141.25,-98"/>
<text text-anchor="middle" x="113" y="-80.7" font-family="Times,serif" font-size="14.00">sayhire_obs</text>
<text text-anchor="middle" x="113" y="-64.2" font-family="Times,serif" font-size="14.00">~</text>
<text text-anchor="middle" x="113" y="-47.7" font-family="Times,serif" font-size="14.00">Data</text>
</g>
<!-- con_obs -->
<g id="node2" class="node">
<title>con_obs</title>
<path fill="lightgrey" stroke="black" d="M65.5,-414.23C65.5,-414.23 28.5,-414.23 28.5,-414.23 22.5,-414.23 16.5,-408.23 16.5,-402.23 16.5,-402.23 16.5,-368.73 16.5,-368.73 16.5,-362.73 22.5,-356.73 28.5,-356.73 28.5,-356.73 65.5,-356.73 65.5,-356.73 71.5,-356.73 77.5,-362.73 77.5,-368.73 77.5,-368.73 77.5,-402.23 77.5,-402.23 77.5,-408.23 71.5,-414.23 65.5,-414.23"/>
<text text-anchor="middle" x="47" y="-396.93" font-family="Times,serif" font-size="14.00">con_obs</text>
<text text-anchor="middle" x="47" y="-380.43" font-family="Times,serif" font-size="14.00">~</text>
<text text-anchor="middle" x="47" y="-363.93" font-family="Times,serif" font-size="14.00">Data</text>
</g>
<!-- p_sayhire -->
<g id="node4" class="node">
<title>p_sayhire</title>
<polygon fill="none" stroke="black" points="160.12,-308.82 69.88,-308.82 69.88,-251.32 160.12,-251.32 160.12,-308.82"/>
<text text-anchor="middle" x="115" y="-291.52" font-family="Times,serif" font-size="14.00">p_sayhire</text>
<text text-anchor="middle" x="115" y="-275.02" font-family="Times,serif" font-size="14.00">~</text>
<text text-anchor="middle" x="115" y="-258.52" font-family="Times,serif" font-size="14.00">Deterministic</text>
</g>
<!-- con_obs&#45;&gt;p_sayhire -->
<g id="edge4" class="edge">
<title>con_obs&#45;&gt;p_sayhire</title>
<path fill="none" stroke="black" d="M65.4,-356.49C73.11,-344.77 82.19,-330.96 90.46,-318.39"/>
<polygon fill="black" stroke="black" points="93.18,-320.62 95.75,-310.34 87.33,-316.77 93.18,-320.62"/>
</g>
<!-- race_obs -->
<g id="node3" class="node">
<title>race_obs</title>
<path fill="lightgrey" stroke="black" d="M148,-414.23C148,-414.23 108,-414.23 108,-414.23 102,-414.23 96,-408.23 96,-402.23 96,-402.23 96,-368.73 96,-368.73 96,-362.73 102,-356.73 108,-356.73 108,-356.73 148,-356.73 148,-356.73 154,-356.73 160,-362.73 160,-368.73 160,-368.73 160,-402.23 160,-402.23 160,-408.23 154,-414.23 148,-414.23"/>
<text text-anchor="middle" x="128" y="-396.93" font-family="Times,serif" font-size="14.00">race_obs</text>
<text text-anchor="middle" x="128" y="-380.43" font-family="Times,serif" font-size="14.00">~</text>
<text text-anchor="middle" x="128" y="-363.93" font-family="Times,serif" font-size="14.00">Data</text>
</g>
<!-- race_obs&#45;&gt;p_sayhire -->
<g id="edge6" class="edge">
<title>race_obs&#45;&gt;p_sayhire</title>
<path fill="none" stroke="black" d="M124.48,-356.49C123.08,-345.34 121.44,-332.31 119.93,-320.25"/>
<polygon fill="black" stroke="black" points="123.43,-320.06 118.71,-310.58 116.48,-320.93 123.43,-320.06"/>
</g>
<!-- sayhire -->
<g id="node5" class="node">
<title>sayhire</title>
<ellipse fill="lightgrey" stroke="black" cx="113" cy="-174.66" rx="47.38" ry="40.66"/>
<text text-anchor="middle" x="113" y="-186.11" font-family="Times,serif" font-size="14.00">sayhire</text>
<text text-anchor="middle" x="113" y="-169.61" font-family="Times,serif" font-size="14.00">~</text>
<text text-anchor="middle" x="113" y="-153.11" font-family="Times,serif" font-size="14.00">Bernoulli</text>
</g>
<!-- p_sayhire&#45;&gt;sayhire -->
<g id="edge8" class="edge">
<title>p_sayhire&#45;&gt;sayhire</title>
<path fill="none" stroke="black" d="M114.46,-251.08C114.31,-243.6 114.15,-235.27 113.99,-226.95"/>
<polygon fill="black" stroke="black" points="117.5,-227.14 113.8,-217.21 110.5,-227.28 117.5,-227.14"/>
</g>
<!-- sayhire&#45;&gt;sayhire_obs -->
<g id="edge1" class="edge">
<title>sayhire&#45;&gt;sayhire_obs</title>
<path fill="none" stroke="black" d="M113,-133.68C113,-125.83 113,-117.6 113,-109.76"/>
<polygon fill="black" stroke="black" points="116.5,-109.79 113,-99.79 109.5,-109.79 116.5,-109.79"/>
</g>
<!-- beta_c -->
<g id="node6" class="node">
<title>beta_c</title>
<ellipse fill="none" stroke="black" cx="219" cy="-385.48" rx="41.01" ry="40.66"/>
<text text-anchor="middle" x="219" y="-396.93" font-family="Times,serif" font-size="14.00">beta_c</text>
<text text-anchor="middle" x="219" y="-380.43" font-family="Times,serif" font-size="14.00">~</text>
<text text-anchor="middle" x="219" y="-363.93" font-family="Times,serif" font-size="14.00">Normal</text>
</g>
<!-- beta_c&#45;&gt;p_sayhire -->
<g id="edge2" class="edge">
<title>beta_c&#45;&gt;p_sayhire</title>
<path fill="none" stroke="black" d="M190.31,-355.95C178.27,-343.98 164.14,-329.93 151.39,-317.25"/>
<polygon fill="black" stroke="black" points="153.87,-314.78 144.31,-310.21 148.94,-319.75 153.87,-314.78"/>
</g>
<!-- beta_rc -->
<g id="node7" class="node">
<title>beta_rc</title>
<ellipse fill="none" stroke="black" cx="319" cy="-385.48" rx="41.01" ry="40.66"/>
<text text-anchor="middle" x="319" y="-396.93" font-family="Times,serif" font-size="14.00">beta_rc</text>
<text text-anchor="middle" x="319" y="-380.43" font-family="Times,serif" font-size="14.00">~</text>
<text text-anchor="middle" x="319" y="-363.93" font-family="Times,serif" font-size="14.00">Normal</text>
</g>
<!-- beta_rc&#45;&gt;p_sayhire -->
<g id="edge3" class="edge">
<title>beta_rc&#45;&gt;p_sayhire</title>
<path fill="none" stroke="black" d="M288.22,-357.9C282.07,-353.22 275.49,-348.64 269,-344.82 238.12,-326.66 201.09,-311.16 171.09,-299.99"/>
<polygon fill="black" stroke="black" points="172.39,-296.73 161.79,-296.59 169.98,-303.31 172.39,-296.73"/>
</g>
<!-- beta_r -->
<g id="node8" class="node">
<title>beta_r</title>
<ellipse fill="none" stroke="black" cx="419" cy="-385.48" rx="41.01" ry="40.66"/>
<text text-anchor="middle" x="419" y="-396.93" font-family="Times,serif" font-size="14.00">beta_r</text>
<text text-anchor="middle" x="419" y="-380.43" font-family="Times,serif" font-size="14.00">~</text>
<text text-anchor="middle" x="419" y="-363.93" font-family="Times,serif" font-size="14.00">Normal</text>
</g>
<!-- beta_r&#45;&gt;p_sayhire -->
<g id="edge7" class="edge">
<title>beta_r&#45;&gt;p_sayhire</title>
<path fill="none" stroke="black" d="M388.91,-357.32C382.65,-352.64 375.86,-348.2 369,-344.82 305.37,-313.43 224.93,-296.62 171.82,-288.28"/>
<polygon fill="black" stroke="black" points="172.5,-284.84 162.09,-286.8 171.45,-291.76 172.5,-284.84"/>
</g>
<!-- alpha -->
<g id="node9" class="node">
<title>alpha</title>
<ellipse fill="none" stroke="black" cx="519" cy="-385.48" rx="41.01" ry="40.66"/>
<text text-anchor="middle" x="519" y="-396.93" font-family="Times,serif" font-size="14.00">alpha</text>
<text text-anchor="middle" x="519" y="-380.43" font-family="Times,serif" font-size="14.00">~</text>
<text text-anchor="middle" x="519" y="-363.93" font-family="Times,serif" font-size="14.00">Normal</text>
</g>
<!-- alpha&#45;&gt;p_sayhire -->
<g id="edge5" class="edge">
<title>alpha&#45;&gt;p_sayhire</title>
<path fill="none" stroke="black" d="M489.09,-356.95C482.81,-352.3 475.97,-347.97 469,-344.82 370.55,-300.34 243.5,-286.86 171.47,-282.8"/>
<polygon fill="black" stroke="black" points="172.07,-279.33 161.9,-282.3 171.71,-286.32 172.07,-279.33"/>
</g>
</g>
</svg>
