<svg xmlns="http://www.w3.org/2000/svg" xmlns:xlink="http://www.w3.org/1999/xlink" width="347pt" height="192pt" viewBox="0.00 0.00 347.00 192.00">
<g id="graph0" class="graph" transform="scale(1 1) rotate(0) translate(4 188)">
<title>structs</title>
<text text-anchor="middle" x="169.5" y="-7.8" font-family="Times,serif" font-size="14.00" fill="#4a4a4a">Inference in   0.11ms</text>
<!-- A -->
<g id="node1" class="node">
<title>A</title>
<polygon fill="#e0e0e0" stroke="#000000" points="101,-184 0,-184 0,-132 101,-132 101,-184"/>
<svg viewBox="0 0 132.1625 66.9755" width="101px" height="52px" preserveAspectRatio="xMinYMin meet" x="0" y="-184"> <metadata>
  <rdf:RDF xmlns:dc="http://purl.org/dc/elements/1.1/" xmlns:cc="http://creativecommons.org/ns#" xmlns:rdf="http://www.w3.org/1999/02/22-rdf-syntax-ns#">
   <cc:Work>
    <dc:type rdf:resource="http://purl.org/dc/dcmitype/StillImage"/>
    <dc:date>2025-06-01T07:54:22.916244</dc:date>
    <dc:format>image/svg+xml</dc:format>
    <dc:creator>
     <cc:Agent>
      <dc:title>Matplotlib v3.10.3, https://matplotlib.org/</dc:title>
     </cc:Agent>
    </dc:creator>
   </cc:Work>
  </rdf:RDF>
 </metadata>
 <defs>
  <style type="text/css">*{stroke-linejoin: round; stroke-linecap: butt}</style>
 </defs>
 <g id="figure_1">
  <g id="patch_1">
   <path d="M 0 66.9755  L 132.1625 66.9755  L 132.1625 0  L 0 0  z " style="fill: #e0e0e0"/>
  </g>
  <g id="axes_1">
   <g id="patch_2">
    <path d="M 16.9625 59.8755  L 128.5625 59.8755  L 128.5625 32.1555  L 16.9625 32.1555  z " style="fill: #ffffff"/>
   </g>
   <g id="patch_3">
    <path d="M 16.9625 59.8755  L 72.7625 59.8755  L 72.7625 47.5555  L 16.9625 47.5555  z " clip-path="url(#p88aee6545e)" style="fill: #8fbc8f"/>
   </g>
   <g id="patch_4">
    <path d="M 16.9625 44.4755  L 72.7625 44.4755  L 72.7625 32.1555  L 16.9625 32.1555  z " clip-path="url(#p88aee6545e)" style="fill: #8fbc8f"/>
   </g>
   <g id="matplotlib.axis_1">
    <g id="xtick_1">
     <g id="line2d_1">
      <path d="M 16.9625 59.8755  L 16.9625 32.1555  " clip-path="url(#p88aee6545e)" style="fill: none; stroke: #b0b0b0; stroke-width: 0.8; stroke-linecap: square"/>
     </g>
     <g id="line2d_2">
      <defs>
       <path id="ma06c84ab86" d="M 0 0  L 0 3.5  " style="stroke: #000000; stroke-width: 0.8"/>
      </defs>
      <g>
       <use xlink:href="#ma06c84ab86" x="16.9625" y="59.8755" style="stroke: #000000; stroke-width: 0.8"/>
      </g>
     </g>
    </g>
    <g id="xtick_2">
     <g id="line2d_3">
      <path d="M 72.7625 59.8755  L 72.7625 32.1555  " clip-path="url(#p88aee6545e)" style="fill: none; stroke: #b0b0b0; stroke-width: 0.8; stroke-linecap: square"/>
     </g>
     <g id="line2d_4">
      <g>
       <use xlink:href="#ma06c84ab86" x="72.7625" y="59.8755" style="stroke: #000000; stroke-width: 0.8"/>
      </g>
     </g>
    </g>
    <g id="xtick_3">
     <g id="line2d_5">
      <path d="M 128.5625 59.8755  L 128.5625 32.1555  " clip-path="url(#p88aee6545e)" style="fill: none; stroke: #b0b0b0; stroke-width: 0.8; stroke-linecap: square"/>
     </g>
     <g id="line2d_6">
      <g>
       <use xlink:href="#ma06c84ab86" x="128.5625" y="59.8755" style="stroke: #000000; stroke-width: 0.8"/>
      </g>
     </g>
    </g>
   </g>
   <g id="matplotlib.axis_2">
    <g id="ytick_1">
     <g id="line2d_7">
      <defs>
       <path id="mf77f243d54" d="M 0 0  L -3.5 0  " style="stroke: #000000; stroke-width: 0.8"/>
      </defs>
      <g>
       <use xlink:href="#mf77f243d54" x="16.9625" y="53.7155" style="stroke: #000000; stroke-width: 0.8"/>
      </g>
     </g>
     <g id="text_1">
      <!-- 1 -->
      <g transform="translate(3.6 57.514719) scale(0.1 -0.1)">
       <defs>
        <path id="DejaVuSans-31" d="M 794 531  L 1825 531  L 1825 4091  L 703 3866  L 703 4441  L 1819 4666  L 2450 4666  L 2450 531  L 3481 531  L 3481 0  L 794 0  L 794 531  z " transform="scale(0.015625)"/>
       </defs>
       <use xlink:href="#DejaVuSans-31"/>
      </g>
     </g>
    </g>
    <g id="ytick_2">
     <g id="line2d_8">
      <g>
       <use xlink:href="#mf77f243d54" x="16.9625" y="38.3155" style="stroke: #000000; stroke-width: 0.8"/>
      </g>
     </g>
     <g id="text_2">
      <!-- 0 -->
      <g transform="translate(3.6 42.114719) scale(0.1 -0.1)">
       <defs>
        <path id="DejaVuSans-30" d="M 2034 4250  Q 1547 4250 1301 3770  Q 1056 3291 1056 2328  Q 1056 1369 1301 889  Q 1547 409 2034 409  Q 2525 409 2770 889  Q 3016 1369 3016 2328  Q 3016 3291 2770 3770  Q 2525 4250 2034 4250  z M 2034 4750  Q 2819 4750 3233 4129  Q 3647 3509 3647 2328  Q 3647 1150 3233 529  Q 2819 -91 2034 -91  Q 1250 -91 836 529  Q 422 1150 422 2328  Q 422 3509 836 4129  Q 1250 4750 2034 4750  z " transform="scale(0.015625)"/>
       </defs>
       <use xlink:href="#DejaVuSans-30"/>
      </g>
     </g>
    </g>
   </g>
   <g id="patch_5">
    <path d="M 16.9625 59.8755  L 16.9625 32.1555  " style="fill: none; stroke: #000000; stroke-width: 0.8; stroke-linejoin: miter; stroke-linecap: square"/>
   </g>
   <g id="patch_6">
    <path d="M 128.5625 59.8755  L 128.5625 32.1555  " style="fill: none; stroke: #000000; stroke-width: 0.8; stroke-linejoin: miter; stroke-linecap: square"/>
   </g>
   <g id="patch_7">
    <path d="M 16.9625 59.8755  L 128.5625 59.8755  " style="fill: none; stroke: #000000; stroke-width: 0.8; stroke-linejoin: miter; stroke-linecap: square"/>
   </g>
   <g id="patch_8">
    <path d="M 16.9625 32.1555  L 128.5625 32.1555  " style="fill: none; stroke: #000000; stroke-width: 0.8; stroke-linejoin: miter; stroke-linecap: square"/>
   </g>
   <g id="text_3">
    <!-- 50.00% -->
    <g style="opacity: 0.7" transform="translate(90.432812 57.795812) scale(0.1 -0.1)">
     <defs>
      <path id="DejaVuSans-35" d="M 691 4666  L 3169 4666  L 3169 4134  L 1269 4134  L 1269 2991  Q 1406 3038 1543 3061  Q 1681 3084 1819 3084  Q 2600 3084 3056 2656  Q 3513 2228 3513 1497  Q 3513 744 3044 326  Q 2575 -91 1722 -91  Q 1428 -91 1123 -41  Q 819 9 494 109  L 494 744  Q 775 591 1075 516  Q 1375 441 1709 441  Q 2250 441 2565 725  Q 2881 1009 2881 1497  Q 2881 1984 2565 2268  Q 2250 2553 1709 2553  Q 1456 2553 1204 2497  Q 953 2441 691 2322  L 691 4666  z " transform="scale(0.015625)"/>
      <path id="DejaVuSans-2e" d="M 684 794  L 1344 794  L 1344 0  L 684 0  L 684 794  z " transform="scale(0.015625)"/>
      <path id="DejaVuSans-25" d="M 4653 2053  Q 4381 2053 4226 1822  Q 4072 1591 4072 1178  Q 4072 772 4226 539  Q 4381 306 4653 306  Q 4919 306 5073 539  Q 5228 772 5228 1178  Q 5228 1588 5073 1820  Q 4919 2053 4653 2053  z M 4653 2450  Q 5147 2450 5437 2106  Q 5728 1763 5728 1178  Q 5728 594 5436 251  Q 5144 -91 4653 -91  Q 4153 -91 3862 251  Q 3572 594 3572 1178  Q 3572 1766 3864 2108  Q 4156 2450 4653 2450  z M 1428 4353  Q 1159 4353 1004 4120  Q 850 3888 850 3481  Q 850 3069 1003 2837  Q 1156 2606 1428 2606  Q 1700 2606 1854 2837  Q 2009 3069 2009 3481  Q 2009 3884 1853 4118  Q 1697 4353 1428 4353  z M 4250 4750  L 4750 4750  L 1831 -91  L 1331 -91  L 4250 4750  z M 1428 4750  Q 1922 4750 2215 4408  Q 2509 4066 2509 3481  Q 2509 2891 2217 2550  Q 1925 2209 1428 2209  Q 931 2209 642 2551  Q 353 2894 353 3481  Q 353 4063 643 4406  Q 934 4750 1428 4750  z " transform="scale(0.015625)"/>
     </defs>
     <use xlink:href="#DejaVuSans-35"/>
     <use xlink:href="#DejaVuSans-30" transform="translate(63.623047 0)"/>
     <use xlink:href="#DejaVuSans-2e" transform="translate(127.246094 0)"/>
     <use xlink:href="#DejaVuSans-30" transform="translate(159.033203 0)"/>
     <use xlink:href="#DejaVuSans-30" transform="translate(222.65625 0)"/>
     <use xlink:href="#DejaVuSans-25" transform="translate(286.279297 0)"/>
    </g>
   </g>
   <g id="text_4">
    <!-- 50.00% -->
    <g style="opacity: 0.7" transform="translate(90.432812 42.395812) scale(0.1 -0.1)">
     <use xlink:href="#DejaVuSans-35"/>
     <use xlink:href="#DejaVuSans-30" transform="translate(63.623047 0)"/>
     <use xlink:href="#DejaVuSans-2e" transform="translate(127.246094 0)"/>
     <use xlink:href="#DejaVuSans-30" transform="translate(159.033203 0)"/>
     <use xlink:href="#DejaVuSans-30" transform="translate(222.65625 0)"/>
     <use xlink:href="#DejaVuSans-25" transform="translate(286.279297 0)"/>
    </g>
   </g>
   <g id="text_5">
    <!-- A -->
    <g transform="translate(68.658125 12.718125) scale(0.12 -0.12)">
     <defs>
      <path id="DejaVuSans-41" d="M 2188 4044  L 1331 1722  L 3047 1722  L 2188 4044  z M 1831 4666  L 2547 4666  L 4325 0  L 3669 0  L 3244 1197  L 1141 1197  L 716 0  L 50 0  L 1831 4666  z " transform="scale(0.015625)"/>
     </defs>
     <use xlink:href="#DejaVuSans-41"/>
    </g>
    <!-- $\mu=0.50$; $\sigma=0.50$ -->
    <g transform="translate(19.7225 26.1555) scale(0.12 -0.12)">
     <defs>
      <path id="DejaVuSans-Oblique-3bc" d="M -84 -1331  L 856 3500  L 1434 3500  L 1009 1322  Q 997 1256 987 1175  Q 978 1094 978 1013  Q 978 722 1161 565  Q 1344 409 1684 409  Q 2147 409 2431 671  Q 2716 934 2816 1459  L 3213 3500  L 3788 3500  L 3266 809  Q 3253 750 3248 706  Q 3244 663 3244 628  Q 3244 531 3283 486  Q 3322 441 3406 441  Q 3438 441 3492 456  Q 3547 472 3647 513  L 3559 50  Q 3422 -19 3297 -55  Q 3172 -91 3053 -91  Q 2847 -91 2730 40  Q 2613 172 2613 403  Q 2438 153 2195 31  Q 1953 -91 1625 -91  Q 1334 -91 1117 43  Q 900 178 831 397  L 494 -1331  L -84 -1331  z " transform="scale(0.015625)"/>
      <path id="DejaVuSans-3d" d="M 678 2906  L 4684 2906  L 4684 2381  L 678 2381  L 678 2906  z M 678 1631  L 4684 1631  L 4684 1100  L 678 1100  L 678 1631  z " transform="scale(0.015625)"/>
      <path id="DejaVuSans-3b" d="M 750 3309  L 1409 3309  L 1409 2516  L 750 2516  L 750 3309  z M 750 794  L 1409 794  L 1409 256  L 897 -744  L 494 -744  L 750 256  L 750 794  z " transform="scale(0.015625)"/>
      <path id="DejaVuSans-20" transform="scale(0.015625)"/>
      <path id="DejaVuSans-Oblique-3c3" d="M 2219 3044  Q 1744 3044 1422 2700  Q 1081 2341 969 1747  Q 844 1119 1044 756  Q 1241 397 1706 397  Q 2166 397 2503 759  Q 2844 1122 2966 1747  Q 3075 2319 2881 2700  Q 2700 3044 2219 3044  z M 2309 3503  L 4219 3500  L 4106 2925  L 3463 2925  Q 3706 2438 3575 1747  Q 3406 888 2884 400  Q 2359 -91 1609 -91  Q 856 -91 525 400  Q 194 888 363 1747  Q 528 2609 1050 3097  Q 1484 3503 2309 3503  z " transform="scale(0.015625)"/>
     </defs>
     <use xlink:href="#DejaVuSans-Oblique-3bc" transform="translate(0 0.78125)"/>
     <use xlink:href="#DejaVuSans-3d" transform="translate(83.105469 0.78125)"/>
     <use xlink:href="#DejaVuSans-30" transform="translate(186.376953 0.78125)"/>
     <use xlink:href="#DejaVuSans-2e" transform="translate(250 0.78125)"/>
     <use xlink:href="#DejaVuSans-35" transform="translate(281.787109 0.78125)"/>
     <use xlink:href="#DejaVuSans-30" transform="translate(345.410156 0.78125)"/>
     <use xlink:href="#DejaVuSans-3b" transform="translate(409.033203 0.78125)"/>
     <use xlink:href="#DejaVuSans-20" transform="translate(442.724609 0.78125)"/>
     <use xlink:href="#DejaVuSans-Oblique-3c3" transform="translate(474.511719 0.78125)"/>
     <use xlink:href="#DejaVuSans-3d" transform="translate(557.373047 0.78125)"/>
     <use xlink:href="#DejaVuSans-30" transform="translate(660.644531 0.78125)"/>
     <use xlink:href="#DejaVuSans-2e" transform="translate(724.267578 0.78125)"/>
     <use xlink:href="#DejaVuSans-35" transform="translate(756.054688 0.78125)"/>
     <use xlink:href="#DejaVuSans-30" transform="translate(819.677734 0.78125)"/>
    </g>
   </g>
  </g>
 </g>
 <defs>
  <clipPath id="p88aee6545e">
   <rect x="16.9625" y="32.1555" width="111.6" height="27.72"/>
  </clipPath>
 </defs>
</svg>

</g>
<!-- D -->
<g id="node4" class="node">
<title>D</title>
<polygon fill="#e0e0e0" stroke="#000000" points="220,-96 119,-96 119,-23 220,-23 220,-96"/>
<svg viewBox="0 0 132.1625 94.6955" width="101px" height="73px" preserveAspectRatio="xMinYMin meet" x="119" y="-96"> <metadata>
  <rdf:RDF xmlns:dc="http://purl.org/dc/elements/1.1/" xmlns:cc="http://creativecommons.org/ns#" xmlns:rdf="http://www.w3.org/1999/02/22-rdf-syntax-ns#">
   <cc:Work>
    <dc:type rdf:resource="http://purl.org/dc/dcmitype/StillImage"/>
    <dc:date>2025-06-01T07:54:23.065918</dc:date>
    <dc:format>image/svg+xml</dc:format>
    <dc:creator>
     <cc:Agent>
      <dc:title>Matplotlib v3.10.3, https://matplotlib.org/</dc:title>
     </cc:Agent>
    </dc:creator>
   </cc:Work>
  </rdf:RDF>
 </metadata>
 <defs>
  <style type="text/css">*{stroke-linejoin: round; stroke-linecap: butt}</style>
 </defs>
 <g id="figure_1">
  <g id="patch_1">
   <path d="M 0 94.6955  L 132.1625 94.6955  L 132.1625 0  L 0 0  z " style="fill: #e0e0e0"/>
  </g>
  <g id="axes_1">
   <g id="patch_2">
    <path d="M 16.9625 87.5955  L 128.5625 87.5955  L 128.5625 32.1555  L 16.9625 32.1555  z " style="fill: #ffffff"/>
   </g>
   <g id="patch_3">
    <path d="M 16.9625 87.5955  L 30.9125 87.5955  L 30.9125 75.923921  L 16.9625 75.923921  z " clip-path="url(#p76f8fb79db)" style="fill: #8fbc8f"/>
   </g>
   <g id="patch_4">
    <path d="M 16.9625 73.006026  L 58.8125 73.006026  L 58.8125 61.334447  L 16.9625 61.334447  z " clip-path="url(#p76f8fb79db)" style="fill: #8fbc8f"/>
   </g>
   <g id="patch_5">
    <path d="M 16.9625 58.416553  L 58.8125 58.416553  L 58.8125 46.744974  L 16.9625 46.744974  z " clip-path="url(#p76f8fb79db)" style="fill: #8fbc8f"/>
   </g>
   <g id="patch_6">
    <path d="M 16.9625 43.827079  L 30.9125 43.827079  L 30.9125 32.1555  L 16.9625 32.1555  z " clip-path="url(#p76f8fb79db)" style="fill: #8fbc8f"/>
   </g>
   <g id="matplotlib.axis_1">
    <g id="xtick_1">
     <g id="line2d_1">
      <path d="M 16.9625 87.5955  L 16.9625 32.1555  " clip-path="url(#p76f8fb79db)" style="fill: none; stroke: #b0b0b0; stroke-width: 0.8; stroke-linecap: square"/>
     </g>
     <g id="line2d_2">
      <defs>
       <path id="me74bedfe4f" d="M 0 0  L 0 3.5  " style="stroke: #000000; stroke-width: 0.8"/>
      </defs>
      <g>
       <use xlink:href="#me74bedfe4f" x="16.9625" y="87.5955" style="stroke: #000000; stroke-width: 0.8"/>
      </g>
     </g>
    </g>
    <g id="xtick_2">
     <g id="line2d_3">
      <path d="M 72.7625 87.5955  L 72.7625 32.1555  " clip-path="url(#p76f8fb79db)" style="fill: none; stroke: #b0b0b0; stroke-width: 0.8; stroke-linecap: square"/>
     </g>
     <g id="line2d_4">
      <g>
       <use xlink:href="#me74bedfe4f" x="72.7625" y="87.5955" style="stroke: #000000; stroke-width: 0.8"/>
      </g>
     </g>
    </g>
    <g id="xtick_3">
     <g id="line2d_5">
      <path d="M 128.5625 87.5955  L 128.5625 32.1555  " clip-path="url(#p76f8fb79db)" style="fill: none; stroke: #b0b0b0; stroke-width: 0.8; stroke-linecap: square"/>
     </g>
     <g id="line2d_6">
      <g>
       <use xlink:href="#me74bedfe4f" x="128.5625" y="87.5955" style="stroke: #000000; stroke-width: 0.8"/>
      </g>
     </g>
    </g>
   </g>
   <g id="matplotlib.axis_2">
    <g id="ytick_1">
     <g id="line2d_7">
      <defs>
       <path id="m1f1362c63d" d="M 0 0  L -3.5 0  " style="stroke: #000000; stroke-width: 0.8"/>
      </defs>
      <g>
       <use xlink:href="#m1f1362c63d" x="16.9625" y="81.759711" style="stroke: #000000; stroke-width: 0.8"/>
      </g>
     </g>
     <g id="text_1">
      <!-- 3 -->
      <g transform="translate(3.6 85.558929) scale(0.1 -0.1)">
       <defs>
        <path id="DejaVuSans-33" d="M 2597 2516  Q 3050 2419 3304 2112  Q 3559 1806 3559 1356  Q 3559 666 3084 287  Q 2609 -91 1734 -91  Q 1441 -91 1130 -33  Q 819 25 488 141  L 488 750  Q 750 597 1062 519  Q 1375 441 1716 441  Q 2309 441 2620 675  Q 2931 909 2931 1356  Q 2931 1769 2642 2001  Q 2353 2234 1838 2234  L 1294 2234  L 1294 2753  L 1863 2753  Q 2328 2753 2575 2939  Q 2822 3125 2822 3475  Q 2822 3834 2567 4026  Q 2313 4219 1838 4219  Q 1578 4219 1281 4162  Q 984 4106 628 3988  L 628 4550  Q 988 4650 1302 4700  Q 1616 4750 1894 4750  Q 2613 4750 3031 4423  Q 3450 4097 3450 3541  Q 3450 3153 3228 2886  Q 3006 2619 2597 2516  z " transform="scale(0.015625)"/>
       </defs>
       <use xlink:href="#DejaVuSans-33"/>
      </g>
     </g>
    </g>
    <g id="ytick_2">
     <g id="line2d_8">
      <g>
       <use xlink:href="#m1f1362c63d" x="16.9625" y="67.170237" style="stroke: #000000; stroke-width: 0.8"/>
      </g>
     </g>
     <g id="text_2">
      <!-- 2 -->
      <g transform="translate(3.6 70.969456) scale(0.1 -0.1)">
       <defs>
        <path id="DejaVuSans-32" d="M 1228 531  L 3431 531  L 3431 0  L 469 0  L 469 531  Q 828 903 1448 1529  Q 2069 2156 2228 2338  Q 2531 2678 2651 2914  Q 2772 3150 2772 3378  Q 2772 3750 2511 3984  Q 2250 4219 1831 4219  Q 1534 4219 1204 4116  Q 875 4013 500 3803  L 500 4441  Q 881 4594 1212 4672  Q 1544 4750 1819 4750  Q 2544 4750 2975 4387  Q 3406 4025 3406 3419  Q 3406 3131 3298 2873  Q 3191 2616 2906 2266  Q 2828 2175 2409 1742  Q 1991 1309 1228 531  z " transform="scale(0.015625)"/>
       </defs>
       <use xlink:href="#DejaVuSans-32"/>
      </g>
     </g>
    </g>
    <g id="ytick_3">
     <g id="line2d_9">
      <g>
       <use xlink:href="#m1f1362c63d" x="16.9625" y="52.580763" style="stroke: #000000; stroke-width: 0.8"/>
      </g>
     </g>
     <g id="text_3">
      <!-- 1 -->
      <g transform="translate(3.6 56.379982) scale(0.1 -0.1)">
       <defs>
        <path id="DejaVuSans-31" d="M 794 531  L 1825 531  L 1825 4091  L 703 3866  L 703 4441  L 1819 4666  L 2450 4666  L 2450 531  L 3481 531  L 3481 0  L 794 0  L 794 531  z " transform="scale(0.015625)"/>
       </defs>
       <use xlink:href="#DejaVuSans-31"/>
      </g>
     </g>
    </g>
    <g id="ytick_4">
     <g id="line2d_10">
      <g>
       <use xlink:href="#m1f1362c63d" x="16.9625" y="37.991289" style="stroke: #000000; stroke-width: 0.8"/>
      </g>
     </g>
     <g id="text_4">
      <!-- 0 -->
      <g transform="translate(3.6 41.790508) scale(0.1 -0.1)">
       <defs>
        <path id="DejaVuSans-30" d="M 2034 4250  Q 1547 4250 1301 3770  Q 1056 3291 1056 2328  Q 1056 1369 1301 889  Q 1547 409 2034 409  Q 2525 409 2770 889  Q 3016 1369 3016 2328  Q 3016 3291 2770 3770  Q 2525 4250 2034 4250  z M 2034 4750  Q 2819 4750 3233 4129  Q 3647 3509 3647 2328  Q 3647 1150 3233 529  Q 2819 -91 2034 -91  Q 1250 -91 836 529  Q 422 1150 422 2328  Q 422 3509 836 4129  Q 1250 4750 2034 4750  z " transform="scale(0.015625)"/>
       </defs>
       <use xlink:href="#DejaVuSans-30"/>
      </g>
     </g>
    </g>
   </g>
   <g id="patch_7">
    <path d="M 16.9625 87.5955  L 16.9625 32.1555  " style="fill: none; stroke: #000000; stroke-width: 0.8; stroke-linejoin: miter; stroke-linecap: square"/>
   </g>
   <g id="patch_8">
    <path d="M 128.5625 87.5955  L 128.5625 32.1555  " style="fill: none; stroke: #000000; stroke-width: 0.8; stroke-linejoin: miter; stroke-linecap: square"/>
   </g>
   <g id="patch_9">
    <path d="M 16.9625 87.5955  L 128.5625 87.5955  " style="fill: none; stroke: #000000; stroke-width: 0.8; stroke-linejoin: miter; stroke-linecap: square"/>
   </g>
   <g id="patch_10">
    <path d="M 16.9625 32.1555  L 128.5625 32.1555  " style="fill: none; stroke: #000000; stroke-width: 0.8; stroke-linejoin: miter; stroke-linecap: square"/>
   </g>
   <g id="text_5">
    <!-- 12.50% -->
    <g style="opacity: 0.7" transform="translate(90.432812 85.515812) scale(0.1 -0.1)">
     <defs>
      <path id="DejaVuSans-2e" d="M 684 794  L 1344 794  L 1344 0  L 684 0  L 684 794  z " transform="scale(0.015625)"/>
      <path id="DejaVuSans-35" d="M 691 4666  L 3169 4666  L 3169 4134  L 1269 4134  L 1269 2991  Q 1406 3038 1543 3061  Q 1681 3084 1819 3084  Q 2600 3084 3056 2656  Q 3513 2228 3513 1497  Q 3513 744 3044 326  Q 2575 -91 1722 -91  Q 1428 -91 1123 -41  Q 819 9 494 109  L 494 744  Q 775 591 1075 516  Q 1375 441 1709 441  Q 2250 441 2565 725  Q 2881 1009 2881 1497  Q 2881 1984 2565 2268  Q 2250 2553 1709 2553  Q 1456 2553 1204 2497  Q 953 2441 691 2322  L 691 4666  z " transform="scale(0.015625)"/>
      <path id="DejaVuSans-25" d="M 4653 2053  Q 4381 2053 4226 1822  Q 4072 1591 4072 1178  Q 4072 772 4226 539  Q 4381 306 4653 306  Q 4919 306 5073 539  Q 5228 772 5228 1178  Q 5228 1588 5073 1820  Q 4919 2053 4653 2053  z M 4653 2450  Q 5147 2450 5437 2106  Q 5728 1763 5728 1178  Q 5728 594 5436 251  Q 5144 -91 4653 -91  Q 4153 -91 3862 251  Q 3572 594 3572 1178  Q 3572 1766 3864 2108  Q 4156 2450 4653 2450  z M 1428 4353  Q 1159 4353 1004 4120  Q 850 3888 850 3481  Q 850 3069 1003 2837  Q 1156 2606 1428 2606  Q 1700 2606 1854 2837  Q 2009 3069 2009 3481  Q 2009 3884 1853 4118  Q 1697 4353 1428 4353  z M 4250 4750  L 4750 4750  L 1831 -91  L 1331 -91  L 4250 4750  z M 1428 4750  Q 1922 4750 2215 4408  Q 2509 4066 2509 3481  Q 2509 2891 2217 2550  Q 1925 2209 1428 2209  Q 931 2209 642 2551  Q 353 2894 353 3481  Q 353 4063 643 4406  Q 934 4750 1428 4750  z " transform="scale(0.015625)"/>
     </defs>
     <use xlink:href="#DejaVuSans-31"/>
     <use xlink:href="#DejaVuSans-32" transform="translate(63.623047 0)"/>
     <use xlink:href="#DejaVuSans-2e" transform="translate(127.246094 0)"/>
     <use xlink:href="#DejaVuSans-35" transform="translate(159.033203 0)"/>
     <use xlink:href="#DejaVuSans-30" transform="translate(222.65625 0)"/>
     <use xlink:href="#DejaVuSans-25" transform="translate(286.279297 0)"/>
    </g>
   </g>
   <g id="text_6">
    <!-- 37.50% -->
    <g style="opacity: 0.7" transform="translate(90.432812 70.926339) scale(0.1 -0.1)">
     <defs>
      <path id="DejaVuSans-37" d="M 525 4666  L 3525 4666  L 3525 4397  L 1831 0  L 1172 0  L 2766 4134  L 525 4134  L 525 4666  z " transform="scale(0.015625)"/>
     </defs>
     <use xlink:href="#DejaVuSans-33"/>
     <use xlink:href="#DejaVuSans-37" transform="translate(63.623047 0)"/>
     <use xlink:href="#DejaVuSans-2e" transform="translate(127.246094 0)"/>
     <use xlink:href="#DejaVuSans-35" transform="translate(159.033203 0)"/>
     <use xlink:href="#DejaVuSans-30" transform="translate(222.65625 0)"/>
     <use xlink:href="#DejaVuSans-25" transform="translate(286.279297 0)"/>
    </g>
   </g>
   <g id="text_7">
    <!-- 37.50% -->
    <g style="opacity: 0.7" transform="translate(90.432812 56.336865) scale(0.1 -0.1)">
     <use xlink:href="#DejaVuSans-33"/>
     <use xlink:href="#DejaVuSans-37" transform="translate(63.623047 0)"/>
     <use xlink:href="#DejaVuSans-2e" transform="translate(127.246094 0)"/>
     <use xlink:href="#DejaVuSans-35" transform="translate(159.033203 0)"/>
     <use xlink:href="#DejaVuSans-30" transform="translate(222.65625 0)"/>
     <use xlink:href="#DejaVuSans-25" transform="translate(286.279297 0)"/>
    </g>
   </g>
   <g id="text_8">
    <!-- 12.50% -->
    <g style="opacity: 0.7" transform="translate(90.432812 41.747391) scale(0.1 -0.1)">
     <use xlink:href="#DejaVuSans-31"/>
     <use xlink:href="#DejaVuSans-32" transform="translate(63.623047 0)"/>
     <use xlink:href="#DejaVuSans-2e" transform="translate(127.246094 0)"/>
     <use xlink:href="#DejaVuSans-35" transform="translate(159.033203 0)"/>
     <use xlink:href="#DejaVuSans-30" transform="translate(222.65625 0)"/>
     <use xlink:href="#DejaVuSans-25" transform="translate(286.279297 0)"/>
    </g>
   </g>
   <g id="text_9">
    <!-- D -->
    <g transform="translate(68.1425 12.718125) scale(0.12 -0.12)">
     <defs>
      <path id="DejaVuSans-44" d="M 1259 4147  L 1259 519  L 2022 519  Q 2988 519 3436 956  Q 3884 1394 3884 2338  Q 3884 3275 3436 3711  Q 2988 4147 2022 4147  L 1259 4147  z M 628 4666  L 1925 4666  Q 3281 4666 3915 4102  Q 4550 3538 4550 2338  Q 4550 1131 3912 565  Q 3275 0 1925 0  L 628 0  L 628 4666  z " transform="scale(0.015625)"/>
     </defs>
     <use xlink:href="#DejaVuSans-44"/>
    </g>
    <!-- $\mu=1.50$; $\sigma=0.87$ -->
    <g transform="translate(19.9025 26.1555) scale(0.12 -0.12)">
     <defs>
      <path id="DejaVuSans-Oblique-3bc" d="M -84 -1331  L 856 3500  L 1434 3500  L 1009 1322  Q 997 1256 987 1175  Q 978 1094 978 1013  Q 978 722 1161 565  Q 1344 409 1684 409  Q 2147 409 2431 671  Q 2716 934 2816 1459  L 3213 3500  L 3788 3500  L 3266 809  Q 3253 750 3248 706  Q 3244 663 3244 628  Q 3244 531 3283 486  Q 3322 441 3406 441  Q 3438 441 3492 456  Q 3547 472 3647 513  L 3559 50  Q 3422 -19 3297 -55  Q 3172 -91 3053 -91  Q 2847 -91 2730 40  Q 2613 172 2613 403  Q 2438 153 2195 31  Q 1953 -91 1625 -91  Q 1334 -91 1117 43  Q 900 178 831 397  L 494 -1331  L -84 -1331  z " transform="scale(0.015625)"/>
      <path id="DejaVuSans-3d" d="M 678 2906  L 4684 2906  L 4684 2381  L 678 2381  L 678 2906  z M 678 1631  L 4684 1631  L 4684 1100  L 678 1100  L 678 1631  z " transform="scale(0.015625)"/>
      <path id="DejaVuSans-3b" d="M 750 3309  L 1409 3309  L 1409 2516  L 750 2516  L 750 3309  z M 750 794  L 1409 794  L 1409 256  L 897 -744  L 494 -744  L 750 256  L 750 794  z " transform="scale(0.015625)"/>
      <path id="DejaVuSans-20" transform="scale(0.015625)"/>
      <path id="DejaVuSans-Oblique-3c3" d="M 2219 3044  Q 1744 3044 1422 2700  Q 1081 2341 969 1747  Q 844 1119 1044 756  Q 1241 397 1706 397  Q 2166 397 2503 759  Q 2844 1122 2966 1747  Q 3075 2319 2881 2700  Q 2700 3044 2219 3044  z M 2309 3503  L 4219 3500  L 4106 2925  L 3463 2925  Q 3706 2438 3575 1747  Q 3406 888 2884 400  Q 2359 -91 1609 -91  Q 856 -91 525 400  Q 194 888 363 1747  Q 528 2609 1050 3097  Q 1484 3503 2309 3503  z " transform="scale(0.015625)"/>
      <path id="DejaVuSans-38" d="M 2034 2216  Q 1584 2216 1326 1975  Q 1069 1734 1069 1313  Q 1069 891 1326 650  Q 1584 409 2034 409  Q 2484 409 2743 651  Q 3003 894 3003 1313  Q 3003 1734 2745 1975  Q 2488 2216 2034 2216  z M 1403 2484  Q 997 2584 770 2862  Q 544 3141 544 3541  Q 544 4100 942 4425  Q 1341 4750 2034 4750  Q 2731 4750 3128 4425  Q 3525 4100 3525 3541  Q 3525 3141 3298 2862  Q 3072 2584 2669 2484  Q 3125 2378 3379 2068  Q 3634 1759 3634 1313  Q 3634 634 3220 271  Q 2806 -91 2034 -91  Q 1263 -91 848 271  Q 434 634 434 1313  Q 434 1759 690 2068  Q 947 2378 1403 2484  z M 1172 3481  Q 1172 3119 1398 2916  Q 1625 2713 2034 2713  Q 2441 2713 2670 2916  Q 2900 3119 2900 3481  Q 2900 3844 2670 4047  Q 2441 4250 2034 4250  Q 1625 4250 1398 4047  Q 1172 3844 1172 3481  z " transform="scale(0.015625)"/>
     </defs>
     <use xlink:href="#DejaVuSans-Oblique-3bc" transform="translate(0 0.78125)"/>
     <use xlink:href="#DejaVuSans-3d" transform="translate(83.105469 0.78125)"/>
     <use xlink:href="#DejaVuSans-31" transform="translate(186.376953 0.78125)"/>
     <use xlink:href="#DejaVuSans-2e" transform="translate(250 0.78125)"/>
     <use xlink:href="#DejaVuSans-35" transform="translate(281.787109 0.78125)"/>
     <use xlink:href="#DejaVuSans-30" transform="translate(345.410156 0.78125)"/>
     <use xlink:href="#DejaVuSans-3b" transform="translate(409.033203 0.78125)"/>
     <use xlink:href="#DejaVuSans-20" transform="translate(442.724609 0.78125)"/>
     <use xlink:href="#DejaVuSans-Oblique-3c3" transform="translate(474.511719 0.78125)"/>
     <use xlink:href="#DejaVuSans-3d" transform="translate(557.373047 0.78125)"/>
     <use xlink:href="#DejaVuSans-30" transform="translate(660.644531 0.78125)"/>
     <use xlink:href="#DejaVuSans-2e" transform="translate(724.267578 0.78125)"/>
     <use xlink:href="#DejaVuSans-38" transform="translate(753.429688 0.78125)"/>
     <use xlink:href="#DejaVuSans-37" transform="translate(817.052734 0.78125)"/>
    </g>
   </g>
  </g>
 </g>
 <defs>
  <clipPath id="p76f8fb79db">
   <rect x="16.9625" y="32.1555" width="111.6" height="55.44"/>
  </clipPath>
 </defs>
</svg>

</g>
<!-- A&#45;&gt;D -->
<g id="edge2" class="edge">
<title>A-&gt;D</title>
<g id="a_edge2"><a xlink:title="0 → 3">
<path fill="none" stroke="#4a4a4a" d="M81.46,-131.9C92.53,-122.92 105.33,-112.54 117.68,-102.52"/>
<polygon fill="#4a4a4a" stroke="#4a4a4a" points="120.15,-105.03 125.71,-96.01 115.74,-99.59 120.15,-105.03"/>
</a>
</g>
</g>
<!-- B -->
<g id="node2" class="node">
<title>B</title>
<polygon fill="#e0e0e0" stroke="#000000" points="220,-184 119,-184 119,-132 220,-132 220,-184"/>
<svg viewBox="0 0 132.1625 66.9755" width="101px" height="52px" preserveAspectRatio="xMinYMin meet" x="119" y="-184"> <metadata>
  <rdf:RDF xmlns:dc="http://purl.org/dc/elements/1.1/" xmlns:cc="http://creativecommons.org/ns#" xmlns:rdf="http://www.w3.org/1999/02/22-rdf-syntax-ns#">
   <cc:Work>
    <dc:type rdf:resource="http://purl.org/dc/dcmitype/StillImage"/>
    <dc:date>2025-06-01T07:54:22.964305</dc:date>
    <dc:format>image/svg+xml</dc:format>
    <dc:creator>
     <cc:Agent>
      <dc:title>Matplotlib v3.10.3, https://matplotlib.org/</dc:title>
     </cc:Agent>
    </dc:creator>
   </cc:Work>
  </rdf:RDF>
 </metadata>
 <defs>
  <style type="text/css">*{stroke-linejoin: round; stroke-linecap: butt}</style>
 </defs>
 <g id="figure_1">
  <g id="patch_1">
   <path d="M 0 66.9755  L 132.1625 66.9755  L 132.1625 0  L 0 0  z " style="fill: #e0e0e0"/>
  </g>
  <g id="axes_1">
   <g id="patch_2">
    <path d="M 16.9625 59.8755  L 128.5625 59.8755  L 128.5625 32.1555  L 16.9625 32.1555  z " style="fill: #ffffff"/>
   </g>
   <g id="patch_3">
    <path d="M 16.9625 59.8755  L 72.7625 59.8755  L 72.7625 47.5555  L 16.9625 47.5555  z " clip-path="url(#pb6e1c05545)" style="fill: #8fbc8f"/>
   </g>
   <g id="patch_4">
    <path d="M 16.9625 44.4755  L 72.7625 44.4755  L 72.7625 32.1555  L 16.9625 32.1555  z " clip-path="url(#pb6e1c05545)" style="fill: #8fbc8f"/>
   </g>
   <g id="matplotlib.axis_1">
    <g id="xtick_1">
     <g id="line2d_1">
      <path d="M 16.9625 59.8755  L 16.9625 32.1555  " clip-path="url(#pb6e1c05545)" style="fill: none; stroke: #b0b0b0; stroke-width: 0.8; stroke-linecap: square"/>
     </g>
     <g id="line2d_2">
      <defs>
       <path id="mc47de101b5" d="M 0 0  L 0 3.5  " style="stroke: #000000; stroke-width: 0.8"/>
      </defs>
      <g>
       <use xlink:href="#mc47de101b5" x="16.9625" y="59.8755" style="stroke: #000000; stroke-width: 0.8"/>
      </g>
     </g>
    </g>
    <g id="xtick_2">
     <g id="line2d_3">
      <path d="M 72.7625 59.8755  L 72.7625 32.1555  " clip-path="url(#pb6e1c05545)" style="fill: none; stroke: #b0b0b0; stroke-width: 0.8; stroke-linecap: square"/>
     </g>
     <g id="line2d_4">
      <g>
       <use xlink:href="#mc47de101b5" x="72.7625" y="59.8755" style="stroke: #000000; stroke-width: 0.8"/>
      </g>
     </g>
    </g>
    <g id="xtick_3">
     <g id="line2d_5">
      <path d="M 128.5625 59.8755  L 128.5625 32.1555  " clip-path="url(#pb6e1c05545)" style="fill: none; stroke: #b0b0b0; stroke-width: 0.8; stroke-linecap: square"/>
     </g>
     <g id="line2d_6">
      <g>
       <use xlink:href="#mc47de101b5" x="128.5625" y="59.8755" style="stroke: #000000; stroke-width: 0.8"/>
      </g>
     </g>
    </g>
   </g>
   <g id="matplotlib.axis_2">
    <g id="ytick_1">
     <g id="line2d_7">
      <defs>
       <path id="m8b3b4ecb32" d="M 0 0  L -3.5 0  " style="stroke: #000000; stroke-width: 0.8"/>
      </defs>
      <g>
       <use xlink:href="#m8b3b4ecb32" x="16.9625" y="53.7155" style="stroke: #000000; stroke-width: 0.8"/>
      </g>
     </g>
     <g id="text_1">
      <!-- 1 -->
      <g transform="translate(3.6 57.514719) scale(0.1 -0.1)">
       <defs>
        <path id="DejaVuSans-31" d="M 794 531  L 1825 531  L 1825 4091  L 703 3866  L 703 4441  L 1819 4666  L 2450 4666  L 2450 531  L 3481 531  L 3481 0  L 794 0  L 794 531  z " transform="scale(0.015625)"/>
       </defs>
       <use xlink:href="#DejaVuSans-31"/>
      </g>
     </g>
    </g>
    <g id="ytick_2">
     <g id="line2d_8">
      <g>
       <use xlink:href="#m8b3b4ecb32" x="16.9625" y="38.3155" style="stroke: #000000; stroke-width: 0.8"/>
      </g>
     </g>
     <g id="text_2">
      <!-- 0 -->
      <g transform="translate(3.6 42.114719) scale(0.1 -0.1)">
       <defs>
        <path id="DejaVuSans-30" d="M 2034 4250  Q 1547 4250 1301 3770  Q 1056 3291 1056 2328  Q 1056 1369 1301 889  Q 1547 409 2034 409  Q 2525 409 2770 889  Q 3016 1369 3016 2328  Q 3016 3291 2770 3770  Q 2525 4250 2034 4250  z M 2034 4750  Q 2819 4750 3233 4129  Q 3647 3509 3647 2328  Q 3647 1150 3233 529  Q 2819 -91 2034 -91  Q 1250 -91 836 529  Q 422 1150 422 2328  Q 422 3509 836 4129  Q 1250 4750 2034 4750  z " transform="scale(0.015625)"/>
       </defs>
       <use xlink:href="#DejaVuSans-30"/>
      </g>
     </g>
    </g>
   </g>
   <g id="patch_5">
    <path d="M 16.9625 59.8755  L 16.9625 32.1555  " style="fill: none; stroke: #000000; stroke-width: 0.8; stroke-linejoin: miter; stroke-linecap: square"/>
   </g>
   <g id="patch_6">
    <path d="M 128.5625 59.8755  L 128.5625 32.1555  " style="fill: none; stroke: #000000; stroke-width: 0.8; stroke-linejoin: miter; stroke-linecap: square"/>
   </g>
   <g id="patch_7">
    <path d="M 16.9625 59.8755  L 128.5625 59.8755  " style="fill: none; stroke: #000000; stroke-width: 0.8; stroke-linejoin: miter; stroke-linecap: square"/>
   </g>
   <g id="patch_8">
    <path d="M 16.9625 32.1555  L 128.5625 32.1555  " style="fill: none; stroke: #000000; stroke-width: 0.8; stroke-linejoin: miter; stroke-linecap: square"/>
   </g>
   <g id="text_3">
    <!-- 50.00% -->
    <g style="opacity: 0.7" transform="translate(90.432812 57.795812) scale(0.1 -0.1)">
     <defs>
      <path id="DejaVuSans-35" d="M 691 4666  L 3169 4666  L 3169 4134  L 1269 4134  L 1269 2991  Q 1406 3038 1543 3061  Q 1681 3084 1819 3084  Q 2600 3084 3056 2656  Q 3513 2228 3513 1497  Q 3513 744 3044 326  Q 2575 -91 1722 -91  Q 1428 -91 1123 -41  Q 819 9 494 109  L 494 744  Q 775 591 1075 516  Q 1375 441 1709 441  Q 2250 441 2565 725  Q 2881 1009 2881 1497  Q 2881 1984 2565 2268  Q 2250 2553 1709 2553  Q 1456 2553 1204 2497  Q 953 2441 691 2322  L 691 4666  z " transform="scale(0.015625)"/>
      <path id="DejaVuSans-2e" d="M 684 794  L 1344 794  L 1344 0  L 684 0  L 684 794  z " transform="scale(0.015625)"/>
      <path id="DejaVuSans-25" d="M 4653 2053  Q 4381 2053 4226 1822  Q 4072 1591 4072 1178  Q 4072 772 4226 539  Q 4381 306 4653 306  Q 4919 306 5073 539  Q 5228 772 5228 1178  Q 5228 1588 5073 1820  Q 4919 2053 4653 2053  z M 4653 2450  Q 5147 2450 5437 2106  Q 5728 1763 5728 1178  Q 5728 594 5436 251  Q 5144 -91 4653 -91  Q 4153 -91 3862 251  Q 3572 594 3572 1178  Q 3572 1766 3864 2108  Q 4156 2450 4653 2450  z M 1428 4353  Q 1159 4353 1004 4120  Q 850 3888 850 3481  Q 850 3069 1003 2837  Q 1156 2606 1428 2606  Q 1700 2606 1854 2837  Q 2009 3069 2009 3481  Q 2009 3884 1853 4118  Q 1697 4353 1428 4353  z M 4250 4750  L 4750 4750  L 1831 -91  L 1331 -91  L 4250 4750  z M 1428 4750  Q 1922 4750 2215 4408  Q 2509 4066 2509 3481  Q 2509 2891 2217 2550  Q 1925 2209 1428 2209  Q 931 2209 642 2551  Q 353 2894 353 3481  Q 353 4063 643 4406  Q 934 4750 1428 4750  z " transform="scale(0.015625)"/>
     </defs>
     <use xlink:href="#DejaVuSans-35"/>
     <use xlink:href="#DejaVuSans-30" transform="translate(63.623047 0)"/>
     <use xlink:href="#DejaVuSans-2e" transform="translate(127.246094 0)"/>
     <use xlink:href="#DejaVuSans-30" transform="translate(159.033203 0)"/>
     <use xlink:href="#DejaVuSans-30" transform="translate(222.65625 0)"/>
     <use xlink:href="#DejaVuSans-25" transform="translate(286.279297 0)"/>
    </g>
   </g>
   <g id="text_4">
    <!-- 50.00% -->
    <g style="opacity: 0.7" transform="translate(90.432812 42.395812) scale(0.1 -0.1)">
     <use xlink:href="#DejaVuSans-35"/>
     <use xlink:href="#DejaVuSans-30" transform="translate(63.623047 0)"/>
     <use xlink:href="#DejaVuSans-2e" transform="translate(127.246094 0)"/>
     <use xlink:href="#DejaVuSans-30" transform="translate(159.033203 0)"/>
     <use xlink:href="#DejaVuSans-30" transform="translate(222.65625 0)"/>
     <use xlink:href="#DejaVuSans-25" transform="translate(286.279297 0)"/>
    </g>
   </g>
   <g id="text_5">
    <!-- B -->
    <g transform="translate(68.645938 12.718125) scale(0.12 -0.12)">
     <defs>
      <path id="DejaVuSans-42" d="M 1259 2228  L 1259 519  L 2272 519  Q 2781 519 3026 730  Q 3272 941 3272 1375  Q 3272 1813 3026 2020  Q 2781 2228 2272 2228  L 1259 2228  z M 1259 4147  L 1259 2741  L 2194 2741  Q 2656 2741 2882 2914  Q 3109 3088 3109 3444  Q 3109 3797 2882 3972  Q 2656 4147 2194 4147  L 1259 4147  z M 628 4666  L 2241 4666  Q 2963 4666 3353 4366  Q 3744 4066 3744 3513  Q 3744 3084 3544 2831  Q 3344 2578 2956 2516  Q 3422 2416 3680 2098  Q 3938 1781 3938 1306  Q 3938 681 3513 340  Q 3088 0 2303 0  L 628 0  L 628 4666  z " transform="scale(0.015625)"/>
     </defs>
     <use xlink:href="#DejaVuSans-42"/>
    </g>
    <!-- $\mu=0.50$; $\sigma=0.50$ -->
    <g transform="translate(19.7225 26.1555) scale(0.12 -0.12)">
     <defs>
      <path id="DejaVuSans-Oblique-3bc" d="M -84 -1331  L 856 3500  L 1434 3500  L 1009 1322  Q 997 1256 987 1175  Q 978 1094 978 1013  Q 978 722 1161 565  Q 1344 409 1684 409  Q 2147 409 2431 671  Q 2716 934 2816 1459  L 3213 3500  L 3788 3500  L 3266 809  Q 3253 750 3248 706  Q 3244 663 3244 628  Q 3244 531 3283 486  Q 3322 441 3406 441  Q 3438 441 3492 456  Q 3547 472 3647 513  L 3559 50  Q 3422 -19 3297 -55  Q 3172 -91 3053 -91  Q 2847 -91 2730 40  Q 2613 172 2613 403  Q 2438 153 2195 31  Q 1953 -91 1625 -91  Q 1334 -91 1117 43  Q 900 178 831 397  L 494 -1331  L -84 -1331  z " transform="scale(0.015625)"/>
      <path id="DejaVuSans-3d" d="M 678 2906  L 4684 2906  L 4684 2381  L 678 2381  L 678 2906  z M 678 1631  L 4684 1631  L 4684 1100  L 678 1100  L 678 1631  z " transform="scale(0.015625)"/>
      <path id="DejaVuSans-3b" d="M 750 3309  L 1409 3309  L 1409 2516  L 750 2516  L 750 3309  z M 750 794  L 1409 794  L 1409 256  L 897 -744  L 494 -744  L 750 256  L 750 794  z " transform="scale(0.015625)"/>
      <path id="DejaVuSans-20" transform="scale(0.015625)"/>
      <path id="DejaVuSans-Oblique-3c3" d="M 2219 3044  Q 1744 3044 1422 2700  Q 1081 2341 969 1747  Q 844 1119 1044 756  Q 1241 397 1706 397  Q 2166 397 2503 759  Q 2844 1122 2966 1747  Q 3075 2319 2881 2700  Q 2700 3044 2219 3044  z M 2309 3503  L 4219 3500  L 4106 2925  L 3463 2925  Q 3706 2438 3575 1747  Q 3406 888 2884 400  Q 2359 -91 1609 -91  Q 856 -91 525 400  Q 194 888 363 1747  Q 528 2609 1050 3097  Q 1484 3503 2309 3503  z " transform="scale(0.015625)"/>
     </defs>
     <use xlink:href="#DejaVuSans-Oblique-3bc" transform="translate(0 0.78125)"/>
     <use xlink:href="#DejaVuSans-3d" transform="translate(83.105469 0.78125)"/>
     <use xlink:href="#DejaVuSans-30" transform="translate(186.376953 0.78125)"/>
     <use xlink:href="#DejaVuSans-2e" transform="translate(250 0.78125)"/>
     <use xlink:href="#DejaVuSans-35" transform="translate(281.787109 0.78125)"/>
     <use xlink:href="#DejaVuSans-30" transform="translate(345.410156 0.78125)"/>
     <use xlink:href="#DejaVuSans-3b" transform="translate(409.033203 0.78125)"/>
     <use xlink:href="#DejaVuSans-20" transform="translate(442.724609 0.78125)"/>
     <use xlink:href="#DejaVuSans-Oblique-3c3" transform="translate(474.511719 0.78125)"/>
     <use xlink:href="#DejaVuSans-3d" transform="translate(557.373047 0.78125)"/>
     <use xlink:href="#DejaVuSans-30" transform="translate(660.644531 0.78125)"/>
     <use xlink:href="#DejaVuSans-2e" transform="translate(724.267578 0.78125)"/>
     <use xlink:href="#DejaVuSans-35" transform="translate(756.054688 0.78125)"/>
     <use xlink:href="#DejaVuSans-30" transform="translate(819.677734 0.78125)"/>
    </g>
   </g>
  </g>
 </g>
 <defs>
  <clipPath id="pb6e1c05545">
   <rect x="16.9625" y="32.1555" width="111.6" height="27.72"/>
  </clipPath>
 </defs>
</svg>

</g>
<!-- B&#45;&gt;D -->
<g id="edge3" class="edge">
<title>B-&gt;D</title>
<g id="a_edge3"><a xlink:title="1 → 3">
<path fill="none" stroke="#4a4a4a" d="M169.5,-131.9C169.5,-124.03 169.5,-115.09 169.5,-106.26"/>
<polygon fill="#4a4a4a" stroke="#4a4a4a" points="173,-106.01 169.5,-96.01 166,-106.01 173,-106.01"/>
</a>
</g>
</g>
<!-- C -->
<g id="node3" class="node">
<title>C</title>
<polygon fill="#e0e0e0" stroke="#000000" points="339,-184 238,-184 238,-132 339,-132 339,-184"/>
<svg viewBox="0 0 132.1625 66.9755" width="101px" height="52px" preserveAspectRatio="xMinYMin meet" x="238" y="-184"> <metadata>
  <rdf:RDF xmlns:dc="http://purl.org/dc/elements/1.1/" xmlns:cc="http://creativecommons.org/ns#" xmlns:rdf="http://www.w3.org/1999/02/22-rdf-syntax-ns#">
   <cc:Work>
    <dc:type rdf:resource="http://purl.org/dc/dcmitype/StillImage"/>
    <dc:date>2025-06-01T07:54:23.011539</dc:date>
    <dc:format>image/svg+xml</dc:format>
    <dc:creator>
     <cc:Agent>
      <dc:title>Matplotlib v3.10.3, https://matplotlib.org/</dc:title>
     </cc:Agent>
    </dc:creator>
   </cc:Work>
  </rdf:RDF>
 </metadata>
 <defs>
  <style type="text/css">*{stroke-linejoin: round; stroke-linecap: butt}</style>
 </defs>
 <g id="figure_1">
  <g id="patch_1">
   <path d="M 0 66.9755  L 132.1625 66.9755  L 132.1625 0  L 0 0  z " style="fill: #e0e0e0"/>
  </g>
  <g id="axes_1">
   <g id="patch_2">
    <path d="M 16.9625 59.8755  L 128.5625 59.8755  L 128.5625 32.1555  L 16.9625 32.1555  z " style="fill: #ffffff"/>
   </g>
   <g id="patch_3">
    <path d="M 16.9625 59.8755  L 72.7625 59.8755  L 72.7625 47.5555  L 16.9625 47.5555  z " clip-path="url(#p281263c660)" style="fill: #8fbc8f"/>
   </g>
   <g id="patch_4">
    <path d="M 16.9625 44.4755  L 72.7625 44.4755  L 72.7625 32.1555  L 16.9625 32.1555  z " clip-path="url(#p281263c660)" style="fill: #8fbc8f"/>
   </g>
   <g id="matplotlib.axis_1">
    <g id="xtick_1">
     <g id="line2d_1">
      <path d="M 16.9625 59.8755  L 16.9625 32.1555  " clip-path="url(#p281263c660)" style="fill: none; stroke: #b0b0b0; stroke-width: 0.8; stroke-linecap: square"/>
     </g>
     <g id="line2d_2">
      <defs>
       <path id="m4a4779052f" d="M 0 0  L 0 3.5  " style="stroke: #000000; stroke-width: 0.8"/>
      </defs>
      <g>
       <use xlink:href="#m4a4779052f" x="16.9625" y="59.8755" style="stroke: #000000; stroke-width: 0.8"/>
      </g>
     </g>
    </g>
    <g id="xtick_2">
     <g id="line2d_3">
      <path d="M 72.7625 59.8755  L 72.7625 32.1555  " clip-path="url(#p281263c660)" style="fill: none; stroke: #b0b0b0; stroke-width: 0.8; stroke-linecap: square"/>
     </g>
     <g id="line2d_4">
      <g>
       <use xlink:href="#m4a4779052f" x="72.7625" y="59.8755" style="stroke: #000000; stroke-width: 0.8"/>
      </g>
     </g>
    </g>
    <g id="xtick_3">
     <g id="line2d_5">
      <path d="M 128.5625 59.8755  L 128.5625 32.1555  " clip-path="url(#p281263c660)" style="fill: none; stroke: #b0b0b0; stroke-width: 0.8; stroke-linecap: square"/>
     </g>
     <g id="line2d_6">
      <g>
       <use xlink:href="#m4a4779052f" x="128.5625" y="59.8755" style="stroke: #000000; stroke-width: 0.8"/>
      </g>
     </g>
    </g>
   </g>
   <g id="matplotlib.axis_2">
    <g id="ytick_1">
     <g id="line2d_7">
      <defs>
       <path id="meb03d82a36" d="M 0 0  L -3.5 0  " style="stroke: #000000; stroke-width: 0.8"/>
      </defs>
      <g>
       <use xlink:href="#meb03d82a36" x="16.9625" y="53.7155" style="stroke: #000000; stroke-width: 0.8"/>
      </g>
     </g>
     <g id="text_1">
      <!-- 1 -->
      <g transform="translate(3.6 57.514719) scale(0.1 -0.1)">
       <defs>
        <path id="DejaVuSans-31" d="M 794 531  L 1825 531  L 1825 4091  L 703 3866  L 703 4441  L 1819 4666  L 2450 4666  L 2450 531  L 3481 531  L 3481 0  L 794 0  L 794 531  z " transform="scale(0.015625)"/>
       </defs>
       <use xlink:href="#DejaVuSans-31"/>
      </g>
     </g>
    </g>
    <g id="ytick_2">
     <g id="line2d_8">
      <g>
       <use xlink:href="#meb03d82a36" x="16.9625" y="38.3155" style="stroke: #000000; stroke-width: 0.8"/>
      </g>
     </g>
     <g id="text_2">
      <!-- 0 -->
      <g transform="translate(3.6 42.114719) scale(0.1 -0.1)">
       <defs>
        <path id="DejaVuSans-30" d="M 2034 4250  Q 1547 4250 1301 3770  Q 1056 3291 1056 2328  Q 1056 1369 1301 889  Q 1547 409 2034 409  Q 2525 409 2770 889  Q 3016 1369 3016 2328  Q 3016 3291 2770 3770  Q 2525 4250 2034 4250  z M 2034 4750  Q 2819 4750 3233 4129  Q 3647 3509 3647 2328  Q 3647 1150 3233 529  Q 2819 -91 2034 -91  Q 1250 -91 836 529  Q 422 1150 422 2328  Q 422 3509 836 4129  Q 1250 4750 2034 4750  z " transform="scale(0.015625)"/>
       </defs>
       <use xlink:href="#DejaVuSans-30"/>
      </g>
     </g>
    </g>
   </g>
   <g id="patch_5">
    <path d="M 16.9625 59.8755  L 16.9625 32.1555  " style="fill: none; stroke: #000000; stroke-width: 0.8; stroke-linejoin: miter; stroke-linecap: square"/>
   </g>
   <g id="patch_6">
    <path d="M 128.5625 59.8755  L 128.5625 32.1555  " style="fill: none; stroke: #000000; stroke-width: 0.8; stroke-linejoin: miter; stroke-linecap: square"/>
   </g>
   <g id="patch_7">
    <path d="M 16.9625 59.8755  L 128.5625 59.8755  " style="fill: none; stroke: #000000; stroke-width: 0.8; stroke-linejoin: miter; stroke-linecap: square"/>
   </g>
   <g id="patch_8">
    <path d="M 16.9625 32.1555  L 128.5625 32.1555  " style="fill: none; stroke: #000000; stroke-width: 0.8; stroke-linejoin: miter; stroke-linecap: square"/>
   </g>
   <g id="text_3">
    <!-- 50.00% -->
    <g style="opacity: 0.7" transform="translate(90.432812 57.795812) scale(0.1 -0.1)">
     <defs>
      <path id="DejaVuSans-35" d="M 691 4666  L 3169 4666  L 3169 4134  L 1269 4134  L 1269 2991  Q 1406 3038 1543 3061  Q 1681 3084 1819 3084  Q 2600 3084 3056 2656  Q 3513 2228 3513 1497  Q 3513 744 3044 326  Q 2575 -91 1722 -91  Q 1428 -91 1123 -41  Q 819 9 494 109  L 494 744  Q 775 591 1075 516  Q 1375 441 1709 441  Q 2250 441 2565 725  Q 2881 1009 2881 1497  Q 2881 1984 2565 2268  Q 2250 2553 1709 2553  Q 1456 2553 1204 2497  Q 953 2441 691 2322  L 691 4666  z " transform="scale(0.015625)"/>
      <path id="DejaVuSans-2e" d="M 684 794  L 1344 794  L 1344 0  L 684 0  L 684 794  z " transform="scale(0.015625)"/>
      <path id="DejaVuSans-25" d="M 4653 2053  Q 4381 2053 4226 1822  Q 4072 1591 4072 1178  Q 4072 772 4226 539  Q 4381 306 4653 306  Q 4919 306 5073 539  Q 5228 772 5228 1178  Q 5228 1588 5073 1820  Q 4919 2053 4653 2053  z M 4653 2450  Q 5147 2450 5437 2106  Q 5728 1763 5728 1178  Q 5728 594 5436 251  Q 5144 -91 4653 -91  Q 4153 -91 3862 251  Q 3572 594 3572 1178  Q 3572 1766 3864 2108  Q 4156 2450 4653 2450  z M 1428 4353  Q 1159 4353 1004 4120  Q 850 3888 850 3481  Q 850 3069 1003 2837  Q 1156 2606 1428 2606  Q 1700 2606 1854 2837  Q 2009 3069 2009 3481  Q 2009 3884 1853 4118  Q 1697 4353 1428 4353  z M 4250 4750  L 4750 4750  L 1831 -91  L 1331 -91  L 4250 4750  z M 1428 4750  Q 1922 4750 2215 4408  Q 2509 4066 2509 3481  Q 2509 2891 2217 2550  Q 1925 2209 1428 2209  Q 931 2209 642 2551  Q 353 2894 353 3481  Q 353 4063 643 4406  Q 934 4750 1428 4750  z " transform="scale(0.015625)"/>
     </defs>
     <use xlink:href="#DejaVuSans-35"/>
     <use xlink:href="#DejaVuSans-30" transform="translate(63.623047 0)"/>
     <use xlink:href="#DejaVuSans-2e" transform="translate(127.246094 0)"/>
     <use xlink:href="#DejaVuSans-30" transform="translate(159.033203 0)"/>
     <use xlink:href="#DejaVuSans-30" transform="translate(222.65625 0)"/>
     <use xlink:href="#DejaVuSans-25" transform="translate(286.279297 0)"/>
    </g>
   </g>
   <g id="text_4">
    <!-- 50.00% -->
    <g style="opacity: 0.7" transform="translate(90.432812 42.395812) scale(0.1 -0.1)">
     <use xlink:href="#DejaVuSans-35"/>
     <use xlink:href="#DejaVuSans-30" transform="translate(63.623047 0)"/>
     <use xlink:href="#DejaVuSans-2e" transform="translate(127.246094 0)"/>
     <use xlink:href="#DejaVuSans-30" transform="translate(159.033203 0)"/>
     <use xlink:href="#DejaVuSans-30" transform="translate(222.65625 0)"/>
     <use xlink:href="#DejaVuSans-25" transform="translate(286.279297 0)"/>
    </g>
   </g>
   <g id="text_5">
    <!-- C -->
    <g transform="translate(68.572812 12.718125) scale(0.12 -0.12)">
     <defs>
      <path id="DejaVuSans-43" d="M 4122 4306  L 4122 3641  Q 3803 3938 3442 4084  Q 3081 4231 2675 4231  Q 1875 4231 1450 3742  Q 1025 3253 1025 2328  Q 1025 1406 1450 917  Q 1875 428 2675 428  Q 3081 428 3442 575  Q 3803 722 4122 1019  L 4122 359  Q 3791 134 3420 21  Q 3050 -91 2638 -91  Q 1578 -91 968 557  Q 359 1206 359 2328  Q 359 3453 968 4101  Q 1578 4750 2638 4750  Q 3056 4750 3426 4639  Q 3797 4528 4122 4306  z " transform="scale(0.015625)"/>
     </defs>
     <use xlink:href="#DejaVuSans-43"/>
    </g>
    <!-- $\mu=0.50$; $\sigma=0.50$ -->
    <g transform="translate(19.7225 26.1555) scale(0.12 -0.12)">
     <defs>
      <path id="DejaVuSans-Oblique-3bc" d="M -84 -1331  L 856 3500  L 1434 3500  L 1009 1322  Q 997 1256 987 1175  Q 978 1094 978 1013  Q 978 722 1161 565  Q 1344 409 1684 409  Q 2147 409 2431 671  Q 2716 934 2816 1459  L 3213 3500  L 3788 3500  L 3266 809  Q 3253 750 3248 706  Q 3244 663 3244 628  Q 3244 531 3283 486  Q 3322 441 3406 441  Q 3438 441 3492 456  Q 3547 472 3647 513  L 3559 50  Q 3422 -19 3297 -55  Q 3172 -91 3053 -91  Q 2847 -91 2730 40  Q 2613 172 2613 403  Q 2438 153 2195 31  Q 1953 -91 1625 -91  Q 1334 -91 1117 43  Q 900 178 831 397  L 494 -1331  L -84 -1331  z " transform="scale(0.015625)"/>
      <path id="DejaVuSans-3d" d="M 678 2906  L 4684 2906  L 4684 2381  L 678 2381  L 678 2906  z M 678 1631  L 4684 1631  L 4684 1100  L 678 1100  L 678 1631  z " transform="scale(0.015625)"/>
      <path id="DejaVuSans-3b" d="M 750 3309  L 1409 3309  L 1409 2516  L 750 2516  L 750 3309  z M 750 794  L 1409 794  L 1409 256  L 897 -744  L 494 -744  L 750 256  L 750 794  z " transform="scale(0.015625)"/>
      <path id="DejaVuSans-20" transform="scale(0.015625)"/>
      <path id="DejaVuSans-Oblique-3c3" d="M 2219 3044  Q 1744 3044 1422 2700  Q 1081 2341 969 1747  Q 844 1119 1044 756  Q 1241 397 1706 397  Q 2166 397 2503 759  Q 2844 1122 2966 1747  Q 3075 2319 2881 2700  Q 2700 3044 2219 3044  z M 2309 3503  L 4219 3500  L 4106 2925  L 3463 2925  Q 3706 2438 3575 1747  Q 3406 888 2884 400  Q 2359 -91 1609 -91  Q 856 -91 525 400  Q 194 888 363 1747  Q 528 2609 1050 3097  Q 1484 3503 2309 3503  z " transform="scale(0.015625)"/>
     </defs>
     <use xlink:href="#DejaVuSans-Oblique-3bc" transform="translate(0 0.78125)"/>
     <use xlink:href="#DejaVuSans-3d" transform="translate(83.105469 0.78125)"/>
     <use xlink:href="#DejaVuSans-30" transform="translate(186.376953 0.78125)"/>
     <use xlink:href="#DejaVuSans-2e" transform="translate(250 0.78125)"/>
     <use xlink:href="#DejaVuSans-35" transform="translate(281.787109 0.78125)"/>
     <use xlink:href="#DejaVuSans-30" transform="translate(345.410156 0.78125)"/>
     <use xlink:href="#DejaVuSans-3b" transform="translate(409.033203 0.78125)"/>
     <use xlink:href="#DejaVuSans-20" transform="translate(442.724609 0.78125)"/>
     <use xlink:href="#DejaVuSans-Oblique-3c3" transform="translate(474.511719 0.78125)"/>
     <use xlink:href="#DejaVuSans-3d" transform="translate(557.373047 0.78125)"/>
     <use xlink:href="#DejaVuSans-30" transform="translate(660.644531 0.78125)"/>
     <use xlink:href="#DejaVuSans-2e" transform="translate(724.267578 0.78125)"/>
     <use xlink:href="#DejaVuSans-35" transform="translate(756.054688 0.78125)"/>
     <use xlink:href="#DejaVuSans-30" transform="translate(819.677734 0.78125)"/>
    </g>
   </g>
  </g>
 </g>
 <defs>
  <clipPath id="p281263c660">
   <rect x="16.9625" y="32.1555" width="111.6" height="27.72"/>
  </clipPath>
 </defs>
</svg>

</g>
<!-- C&#45;&gt;D -->
<g id="edge1" class="edge">
<title>C-&gt;D</title>
<g id="a_edge1"><a xlink:title="2 → 3">
<path fill="none" stroke="#4a4a4a" d="M257.54,-131.9C246.47,-122.92 233.67,-112.54 221.32,-102.52"/>
<polygon fill="#4a4a4a" stroke="#4a4a4a" points="223.26,-99.59 213.29,-96.01 218.85,-105.03 223.26,-99.59"/>
</a>
</g>
</g>
</g>
</svg>