<?xml version="1.0" encoding="UTF-8"?>
<svg xmlns="http://www.w3.org/2000/svg" xmlns:xlink="http://www.w3.org/1999/xlink" width="74.498pt" height="51.422pt" viewBox="0 0 74.498 51.422">
<defs>
<g>
<g id="glyph-0-0">
<path d="M 7.59375 -6.6875 C 7.59375 -6.765625 7.546875 -6.8125 7.46875 -6.8125 C 7.203125 -6.8125 6.921875 -6.78125 6.65625 -6.78125 C 6.3125 -6.78125 5.96875 -6.8125 5.65625 -6.8125 C 5.59375 -6.8125 5.46875 -6.8125 5.46875 -6.625 C 5.46875 -6.515625 5.5625 -6.5 5.609375 -6.5 C 5.6875 -6.5 5.96875 -6.484375 5.96875 -6.265625 C 5.96875 -6.09375 5.734375 -5.84375 5.703125 -5.796875 L 3.390625 -3.125 L 2.296875 -6.09375 C 2.234375 -6.234375 2.234375 -6.265625 2.234375 -6.265625 C 2.234375 -6.5 2.71875 -6.5 2.828125 -6.5 C 2.953125 -6.5 3.0625 -6.5 3.0625 -6.703125 C 3.0625 -6.8125 2.9375 -6.8125 2.90625 -6.8125 L 1.65625 -6.78125 C 1.40625 -6.78125 0.78125 -6.8125 0.53125 -6.8125 C 0.484375 -6.8125 0.34375 -6.8125 0.34375 -6.609375 C 0.34375 -6.5 0.453125 -6.5 0.578125 -6.5 C 1.171875 -6.5 1.21875 -6.40625 1.3125 -6.15625 L 2.53125 -2.875 C 2.546875 -2.84375 2.578125 -2.734375 2.578125 -2.71875 C 2.578125 -2.6875 2.171875 -1.078125 2.125 -0.890625 C 2 -0.34375 1.984375 -0.3125 1.1875 -0.3125 C 1 -0.3125 0.921875 -0.3125 0.921875 -0.109375 C 0.921875 0 1.0625 0 1.0625 0 L 2.3125 -0.03125 L 3.59375 0 C 3.65625 0 3.78125 0 3.78125 -0.203125 C 3.78125 -0.3125 3.6875 -0.3125 3.5 -0.3125 C 3.5 -0.3125 3.296875 -0.3125 3.125 -0.328125 C 2.90625 -0.34375 2.84375 -0.375 2.84375 -0.484375 C 2.84375 -0.5625 2.9375 -0.90625 2.984375 -1.109375 L 3.34375 -2.515625 C 3.390625 -2.71875 3.40625 -2.734375 3.484375 -2.828125 L 5.953125 -5.671875 L 6.09375 -5.8125 C 6.390625 -6.109375 6.71875 -6.453125 7.390625 -6.5 C 7.5 -6.515625 7.59375 -6.515625 7.59375 -6.6875 Z M 7.59375 -6.6875 "/>
</g>
<g id="glyph-0-1">
<path d="M 8.78125 -0.203125 C 8.78125 -0.3125 8.6875 -0.3125 8.5 -0.3125 C 8.140625 -0.3125 7.859375 -0.3125 7.859375 -0.484375 C 7.859375 -0.53125 7.859375 -0.546875 7.90625 -0.734375 L 9.234375 -6.046875 C 9.328125 -6.40625 9.34375 -6.5 10.09375 -6.5 C 10.3125 -6.5 10.40625 -6.5 10.40625 -6.703125 C 10.40625 -6.8125 10.3125 -6.8125 10.140625 -6.8125 L 8.828125 -6.8125 C 8.5625 -6.8125 8.546875 -6.8125 8.4375 -6.625 L 4.796875 -0.9375 L 4.015625 -6.578125 C 3.984375 -6.8125 3.96875 -6.8125 3.703125 -6.8125 L 2.34375 -6.8125 C 2.15625 -6.8125 2.046875 -6.8125 2.046875 -6.625 C 2.046875 -6.5 2.140625 -6.5 2.328125 -6.5 C 2.46875 -6.5 2.640625 -6.484375 2.765625 -6.484375 C 2.921875 -6.453125 2.984375 -6.4375 2.984375 -6.3125 C 2.984375 -6.28125 2.96875 -6.25 2.9375 -6.125 L 1.671875 -1.0625 C 1.578125 -0.65625 1.40625 -0.34375 0.59375 -0.3125 C 0.546875 -0.3125 0.421875 -0.296875 0.421875 -0.125 C 0.421875 -0.03125 0.484375 0 0.5625 0 C 0.875 0 1.21875 -0.03125 1.5625 -0.03125 C 1.890625 -0.03125 2.25 0 2.578125 0 C 2.625 0 2.765625 0 2.765625 -0.203125 C 2.765625 -0.3125 2.65625 -0.3125 2.578125 -0.3125 C 2.015625 -0.3125 1.90625 -0.515625 1.90625 -0.75 C 1.90625 -0.8125 1.90625 -0.875 1.9375 -0.984375 L 3.296875 -6.40625 L 3.3125 -6.40625 L 4.171875 -0.234375 C 4.1875 -0.109375 4.203125 0 4.3125 0 C 4.421875 0 4.484375 -0.109375 4.53125 -0.171875 L 8.5625 -6.484375 L 8.578125 -6.484375 L 7.140625 -0.78125 C 7.046875 -0.390625 7.03125 -0.3125 6.234375 -0.3125 C 6.078125 -0.3125 5.96875 -0.3125 5.96875 -0.125 C 5.96875 0 6.078125 0 6.109375 0 L 7.34375 -0.03125 C 7.75 -0.03125 8.1875 0 8.59375 0 C 8.65625 0 8.78125 0 8.78125 -0.203125 Z M 8.78125 -0.203125 "/>
</g>
<g id="glyph-0-2">
<path d="M 6.4375 -5.515625 C 6.4375 -5.171875 6.28125 -4.484375 5.890625 -4.09375 C 5.625 -3.84375 5.109375 -3.515625 4.203125 -3.515625 L 3.09375 -3.515625 L 3.734375 -6.125 C 3.796875 -6.359375 3.828125 -6.453125 4.015625 -6.484375 C 4.109375 -6.5 4.421875 -6.5 4.625 -6.5 C 5.328125 -6.5 6.4375 -6.5 6.4375 -5.515625 Z M 7.53125 -0.921875 C 7.53125 -1.046875 7.40625 -1.046875 7.40625 -1.046875 C 7.3125 -1.046875 7.296875 -0.984375 7.28125 -0.90625 C 7.03125 -0.171875 6.59375 0 6.375 0 C 6.046875 0 5.96875 -0.21875 5.96875 -0.609375 C 5.96875 -0.921875 6.03125 -1.421875 6.078125 -1.75 C 6.09375 -1.890625 6.109375 -2.078125 6.109375 -2.21875 C 6.109375 -2.984375 5.4375 -3.296875 5.171875 -3.390625 C 6.1875 -3.609375 7.359375 -4.3125 7.359375 -5.3125 C 7.359375 -6.171875 6.46875 -6.8125 5.15625 -6.8125 L 2.328125 -6.8125 C 2.125 -6.8125 2.03125 -6.8125 2.03125 -6.609375 C 2.03125 -6.5 2.125 -6.5 2.3125 -6.5 C 2.3125 -6.5 2.515625 -6.5 2.6875 -6.484375 C 2.875 -6.453125 2.953125 -6.453125 2.953125 -6.3125 C 2.953125 -6.28125 2.953125 -6.25 2.921875 -6.125 L 1.578125 -0.78125 C 1.484375 -0.390625 1.46875 -0.3125 0.671875 -0.3125 C 0.5 -0.3125 0.40625 -0.3125 0.40625 -0.109375 C 0.40625 0 0.546875 0 0.546875 0 L 1.796875 -0.03125 L 3.078125 0 C 3.15625 0 3.265625 0 3.265625 -0.203125 C 3.265625 -0.3125 3.1875 -0.3125 2.984375 -0.3125 C 2.625 -0.3125 2.34375 -0.3125 2.34375 -0.484375 C 2.34375 -0.546875 2.359375 -0.59375 2.375 -0.65625 L 3.03125 -3.296875 L 4.21875 -3.296875 C 5.125 -3.296875 5.296875 -2.734375 5.296875 -2.390625 C 5.296875 -2.25 5.21875 -1.9375 5.15625 -1.703125 C 5.09375 -1.421875 5 -1.0625 5 -0.859375 C 5 0.21875 6.203125 0.21875 6.328125 0.21875 C 7.171875 0.21875 7.53125 -0.78125 7.53125 -0.921875 Z M 7.53125 -0.921875 "/>
</g>
</g>
<clipPath id="clip-0">
<path clip-rule="nonzero" d="M 51 28 L 74.496094 28 L 74.496094 51.421875 L 51 51.421875 Z M 51 28 "/>
</clipPath>
<clipPath id="clip-1">
<path clip-rule="nonzero" d="M 45 22 L 74.496094 22 L 74.496094 51.421875 L 45 51.421875 Z M 45 22 "/>
</clipPath>
<clipPath id="clip-2">
<path clip-rule="nonzero" d="M 0 28 L 23 28 L 23 51.421875 L 0 51.421875 Z M 0 28 "/>
</clipPath>
<clipPath id="clip-3">
<path clip-rule="nonzero" d="M 0 22 L 29 22 L 29 51.421875 L 0 51.421875 Z M 0 22 "/>
</clipPath>
</defs>
<g clip-path="url(#clip-0)">
<path fill-rule="nonzero" fill="rgb(100%, 100%, 100%)" fill-opacity="1" d="M 74.296875 39.882812 C 74.296875 33.621094 69.222656 28.546875 62.960938 28.546875 C 56.699219 28.546875 51.621094 33.621094 51.621094 39.882812 C 51.621094 46.144531 56.699219 51.222656 62.960938 51.222656 C 69.222656 51.222656 74.296875 46.144531 74.296875 39.882812 Z M 74.296875 39.882812 "/>
</g>
<g clip-path="url(#clip-1)">
<path fill="none" stroke-width="0.3985" stroke-linecap="butt" stroke-linejoin="miter" stroke="rgb(0%, 0%, 0%)" stroke-opacity="1" stroke-miterlimit="10" d="M 11.336875 0.0011875 C 11.336875 6.262906 6.262656 11.337125 0.0009375 11.337125 C -6.260781 11.337125 -11.338906 6.262906 -11.338906 0.0011875 C -11.338906 -6.260531 -6.260781 -11.338656 0.0009375 -11.338656 C 6.262656 -11.338656 11.336875 -6.260531 11.336875 0.0011875 Z M 11.336875 0.0011875 " transform="matrix(1, 0, 0, -1, 62.96, 39.884)"/>
</g>
<g fill="rgb(0%, 0%, 0%)" fill-opacity="1">
<use xlink:href="#glyph-0-0" x="58.961" y="43.288"/>
</g>
<g clip-path="url(#clip-2)">
<path fill-rule="nonzero" fill="rgb(100%, 100%, 100%)" fill-opacity="1" d="M 22.875 39.882812 C 22.875 33.621094 17.800781 28.546875 11.539062 28.546875 C 5.273438 28.546875 0.199219 33.621094 0.199219 39.882812 C 0.199219 46.144531 5.273438 51.222656 11.539062 51.222656 C 17.800781 51.222656 22.875 46.144531 22.875 39.882812 Z M 22.875 39.882812 "/>
</g>
<g clip-path="url(#clip-3)">
<path fill="none" stroke-width="0.3985" stroke-linecap="butt" stroke-linejoin="miter" stroke="rgb(0%, 0%, 0%)" stroke-opacity="1" stroke-miterlimit="10" d="M -40.085 0.0011875 C -40.085 6.262906 -45.159219 11.337125 -51.420938 11.337125 C -57.686563 11.337125 -62.760781 6.262906 -62.760781 0.0011875 C -62.760781 -6.260531 -57.686563 -11.338656 -51.420938 -11.338656 C -45.159219 -11.338656 -40.085 -6.260531 -40.085 0.0011875 Z M -40.085 0.0011875 " transform="matrix(1, 0, 0, -1, 62.96, 39.884)"/>
</g>
<g fill="rgb(0%, 0%, 0%)" fill-opacity="1">
<use xlink:href="#glyph-0-1" x="6.162" y="43.288"/>
</g>
<path fill-rule="nonzero" fill="rgb(100%, 100%, 100%)" fill-opacity="1" stroke-width="0.3985" stroke-linecap="butt" stroke-linejoin="miter" stroke="rgb(0%, 0%, 0%)" stroke-opacity="1" stroke-miterlimit="10" d="M -14.374063 28.344938 C -14.374063 34.610563 -19.448281 39.684781 -25.71 39.684781 C -31.971719 39.684781 -37.049844 34.610563 -37.049844 28.344938 C -37.049844 22.083219 -31.971719 17.009 -25.71 17.009 C -19.448281 17.009 -14.374063 22.083219 -14.374063 28.344938 Z M -14.374063 28.344938 " transform="matrix(1, 0, 0, -1, 62.96, 39.884)"/>
<g fill="rgb(0%, 0%, 0%)" fill-opacity="1">
<use xlink:href="#glyph-0-2" x="33.428" y="14.942"/>
</g>
</svg>
