<?xml version="1.0" encoding="UTF-8" standalone="no"?>
<!DOCTYPE svg PUBLIC "-//W3C//DTD SVG 1.1//EN"
 "http://www.w3.org/Graphics/SVG/1.1/DTD/svg11.dtd">
<!-- Generated by graphviz version 2.43.0 (0)
 -->
<!-- Title: %3 Pages: 1 -->
<svg width="258pt" height="416pt"
 viewBox="0.00 0.00 257.97 415.81" xmlns="http://www.w3.org/2000/svg" xmlns:xlink="http://www.w3.org/1999/xlink">
<g id="graph0" class="graph" transform="scale(1 1) rotate(0) translate(4 411.81)">
<title>%3</title>
<polygon fill="white" stroke="transparent" points="-4,4 -4,-411.81 253.97,-411.81 253.97,4 -4,4"/>
<!-- A -->
<g id="node1" class="node">
<title>A</title>
<ellipse fill="none" stroke="black" cx="57.98" cy="-148.43" rx="57.97" ry="37.45"/>
<text text-anchor="middle" x="57.98" y="-159.73" font-family="Times,serif" font-size="14.00">A</text>
<text text-anchor="middle" x="57.98" y="-144.73" font-family="Times,serif" font-size="14.00">~</text>
<text text-anchor="middle" x="57.98" y="-129.73" font-family="Times,serif" font-size="14.00">Bernoulli</text>
</g>
<!-- D -->
<g id="node3" class="node">
<title>D</title>
<ellipse fill="none" stroke="black" cx="124.98" cy="-37.48" rx="57.97" ry="37.45"/>
<text text-anchor="middle" x="124.98" y="-48.78" font-family="Times,serif" font-size="14.00">D</text>
<text text-anchor="middle" x="124.98" y="-33.78" font-family="Times,serif" font-size="14.00">~</text>
<text text-anchor="middle" x="124.98" y="-18.78" font-family="Times,serif" font-size="14.00">Bernoulli</text>
</g>
<!-- A&#45;&gt;D -->
<g id="edge4" class="edge">
<title>A&#45;&gt;D</title>
<path fill="none" stroke="black" d="M79,-113.26C85.23,-103.11 92.14,-91.88 98.67,-81.26"/>
<polygon fill="black" stroke="black" points="101.79,-82.88 104.04,-72.53 95.82,-79.21 101.79,-82.88"/>
</g>
<!-- CO -->
<g id="node2" class="node">
<title>CO</title>
<ellipse fill="none" stroke="black" cx="124.98" cy="-370.34" rx="57.97" ry="37.45"/>
<text text-anchor="middle" x="124.98" y="-381.64" font-family="Times,serif" font-size="14.00">CO</text>
<text text-anchor="middle" x="124.98" y="-366.64" font-family="Times,serif" font-size="14.00">~</text>
<text text-anchor="middle" x="124.98" y="-351.64" font-family="Times,serif" font-size="14.00">Bernoulli</text>
</g>
<!-- C -->
<g id="node5" class="node">
<title>C</title>
<ellipse fill="none" stroke="black" cx="124.98" cy="-259.38" rx="57.97" ry="37.45"/>
<text text-anchor="middle" x="124.98" y="-270.68" font-family="Times,serif" font-size="14.00">C</text>
<text text-anchor="middle" x="124.98" y="-255.68" font-family="Times,serif" font-size="14.00">~</text>
<text text-anchor="middle" x="124.98" y="-240.68" font-family="Times,serif" font-size="14.00">Bernoulli</text>
</g>
<!-- CO&#45;&gt;C -->
<g id="edge1" class="edge">
<title>CO&#45;&gt;C</title>
<path fill="none" stroke="black" d="M124.98,-332.75C124.98,-324.58 124.98,-315.8 124.98,-307.27"/>
<polygon fill="black" stroke="black" points="128.48,-307.06 124.98,-297.06 121.48,-307.06 128.48,-307.06"/>
</g>
<!-- B -->
<g id="node4" class="node">
<title>B</title>
<ellipse fill="none" stroke="black" cx="191.98" cy="-148.43" rx="57.97" ry="37.45"/>
<text text-anchor="middle" x="191.98" y="-159.73" font-family="Times,serif" font-size="14.00">B</text>
<text text-anchor="middle" x="191.98" y="-144.73" font-family="Times,serif" font-size="14.00">~</text>
<text text-anchor="middle" x="191.98" y="-129.73" font-family="Times,serif" font-size="14.00">Bernoulli</text>
</g>
<!-- B&#45;&gt;D -->
<g id="edge5" class="edge">
<title>B&#45;&gt;D</title>
<path fill="none" stroke="black" d="M170.97,-113.26C164.73,-103.11 157.82,-91.88 151.29,-81.26"/>
<polygon fill="black" stroke="black" points="154.14,-79.21 145.92,-72.53 148.18,-82.88 154.14,-79.21"/>
</g>
<!-- C&#45;&gt;A -->
<g id="edge2" class="edge">
<title>C&#45;&gt;A</title>
<path fill="none" stroke="black" d="M103.97,-224.21C97.73,-214.07 90.82,-202.83 84.29,-192.22"/>
<polygon fill="black" stroke="black" points="87.14,-190.17 78.92,-183.48 81.18,-193.83 87.14,-190.17"/>
</g>
<!-- C&#45;&gt;B -->
<g id="edge3" class="edge">
<title>C&#45;&gt;B</title>
<path fill="none" stroke="black" d="M146,-224.21C152.23,-214.07 159.14,-202.83 165.67,-192.22"/>
<polygon fill="black" stroke="black" points="168.79,-193.83 171.04,-183.48 162.82,-190.17 168.79,-193.83"/>
</g>
</g>
</svg>
