<?xml version="1.0" encoding="UTF-8" standalone="no"?>
<!DOCTYPE svg PUBLIC "-//W3C//DTD SVG 1.1//EN"
 "http://www.w3.org/Graphics/SVG/1.1/DTD/svg11.dtd">
<!-- Generated by graphviz version 2.43.0 (0)
 -->
<!-- Title: %3 Pages: 1 -->
<svg width="356pt" height="433pt"
 viewBox="0.00 0.00 355.78 432.86" xmlns="http://www.w3.org/2000/svg" xmlns:xlink="http://www.w3.org/1999/xlink">
<g id="graph0" class="graph" transform="scale(1 1) rotate(0) translate(4 428.86)">
<title>%3</title>
<polygon fill="white" stroke="transparent" points="-4,4 -4,-428.86 351.78,-428.86 351.78,4 -4,4"/>
<g id="clust1" class="cluster">
<title>clustervillage (208)</title>
<path fill="none" stroke="black" d="M20,-8C20,-8 134,-8 134,-8 140,-8 146,-14 146,-20 146,-20 146,-309.91 146,-309.91 146,-315.91 140,-321.91 134,-321.91 134,-321.91 20,-321.91 20,-321.91 14,-321.91 8,-315.91 8,-309.91 8,-309.91 8,-20 8,-20 8,-14 14,-8 20,-8"/>
<text text-anchor="middle" x="93" y="-15.8" font-family="Times,serif" font-size="14.00">village (208)</text>
</g>
<!-- p_pub_hug -->
<g id="node1" class="node">
<title>p_pub_hug</title>
<ellipse fill="none" stroke="black" cx="220" cy="-276.43" rx="65.52" ry="37.45"/>
<text text-anchor="middle" x="220" y="-287.73" font-family="Times,serif" font-size="14.00">p_pub_hug</text>
<text text-anchor="middle" x="220" y="-272.73" font-family="Times,serif" font-size="14.00">~</text>
<text text-anchor="middle" x="220" y="-257.73" font-family="Times,serif" font-size="14.00">Uniform</text>
</g>
<!-- p_pub -->
<g id="node4" class="node">
<title>p_pub</title>
<polygon fill="none" stroke="black" points="136,-202.95 22,-202.95 22,-149.95 136,-149.95 136,-202.95"/>
<text text-anchor="middle" x="79" y="-187.75" font-family="Times,serif" font-size="14.00">p_pub</text>
<text text-anchor="middle" x="79" y="-172.75" font-family="Times,serif" font-size="14.00">~</text>
<text text-anchor="middle" x="79" y="-157.75" font-family="Times,serif" font-size="14.00">Deterministic</text>
</g>
<!-- p_pub_hug&#45;&gt;p_pub -->
<g id="edge3" class="edge">
<title>p_pub_hug&#45;&gt;p_pub</title>
<path fill="none" stroke="black" d="M178.84,-246.83C161.79,-234.98 141.96,-221.21 124.49,-209.06"/>
<polygon fill="black" stroke="black" points="126.33,-206.08 116.12,-203.25 122.34,-211.83 126.33,-206.08"/>
</g>
<!-- p_pub_nohug -->
<g id="node2" class="node">
<title>p_pub_nohug</title>
<ellipse fill="none" stroke="black" cx="270" cy="-387.38" rx="77.56" ry="37.45"/>
<text text-anchor="middle" x="270" y="-398.68" font-family="Times,serif" font-size="14.00">p_pub_nohug</text>
<text text-anchor="middle" x="270" y="-383.68" font-family="Times,serif" font-size="14.00">~</text>
<text text-anchor="middle" x="270" y="-368.68" font-family="Times,serif" font-size="14.00">Uniform</text>
</g>
<!-- p_pub_nohug&#45;&gt;p_pub_hug -->
<g id="edge2" class="edge">
<title>p_pub_nohug&#45;&gt;p_pub_hug</title>
<path fill="none" stroke="black" d="M253.63,-350.71C249.44,-341.58 244.89,-331.66 240.52,-322.15"/>
<polygon fill="black" stroke="black" points="243.59,-320.44 236.24,-312.81 237.23,-323.36 243.59,-320.44"/>
</g>
<!-- p_pub_nohug&#45;&gt;p_pub -->
<g id="edge4" class="edge">
<title>p_pub_nohug&#45;&gt;p_pub</title>
<path fill="none" stroke="black" d="M289.78,-350.95C304.87,-318.65 319.32,-271.17 295,-238.95 276.94,-215.03 202.64,-197.66 146.19,-187.6"/>
<polygon fill="black" stroke="black" points="146.68,-184.13 136.23,-185.86 145.48,-191.03 146.68,-184.13"/>
</g>
<!-- p_hug -->
<g id="node3" class="node">
<title>p_hug</title>
<ellipse fill="none" stroke="black" cx="77" cy="-387.38" rx="53.98" ry="37.45"/>
<text text-anchor="middle" x="77" y="-398.68" font-family="Times,serif" font-size="14.00">p_hug</text>
<text text-anchor="middle" x="77" y="-383.68" font-family="Times,serif" font-size="14.00">~</text>
<text text-anchor="middle" x="77" y="-368.68" font-family="Times,serif" font-size="14.00">Uniform</text>
</g>
<!-- huguenot -->
<g id="node6" class="node">
<title>huguenot</title>
<ellipse fill="lightgrey" stroke="black" cx="77" cy="-276.43" rx="59.29" ry="37.45"/>
<text text-anchor="middle" x="77" y="-287.73" font-family="Times,serif" font-size="14.00">huguenot</text>
<text text-anchor="middle" x="77" y="-272.73" font-family="Times,serif" font-size="14.00">~</text>
<text text-anchor="middle" x="77" y="-257.73" font-family="Times,serif" font-size="14.00">Bernoulli</text>
</g>
<!-- p_hug&#45;&gt;huguenot -->
<g id="edge1" class="edge">
<title>p_hug&#45;&gt;huguenot</title>
<path fill="none" stroke="black" d="M77,-349.8C77,-341.63 77,-332.85 77,-324.32"/>
<polygon fill="black" stroke="black" points="80.5,-324.1 77,-314.1 73.5,-324.1 80.5,-324.1"/>
</g>
<!-- published -->
<g id="node5" class="node">
<title>published</title>
<ellipse fill="lightgrey" stroke="black" cx="77" cy="-76.48" rx="60.62" ry="37.45"/>
<text text-anchor="middle" x="77" y="-87.78" font-family="Times,serif" font-size="14.00">published</text>
<text text-anchor="middle" x="77" y="-72.78" font-family="Times,serif" font-size="14.00">~</text>
<text text-anchor="middle" x="77" y="-57.78" font-family="Times,serif" font-size="14.00">Bernoulli</text>
</g>
<!-- p_pub&#45;&gt;published -->
<g id="edge6" class="edge">
<title>p_pub&#45;&gt;published</title>
<path fill="none" stroke="black" d="M78.47,-149.71C78.31,-141.89 78.13,-133.03 77.96,-124.27"/>
<polygon fill="black" stroke="black" points="81.45,-124.03 77.75,-114.1 74.45,-124.17 81.45,-124.03"/>
</g>
<!-- huguenot&#45;&gt;p_pub -->
<g id="edge5" class="edge">
<title>huguenot&#45;&gt;p_pub</title>
<path fill="none" stroke="black" d="M77.74,-238.95C77.92,-230.53 78.1,-221.59 78.27,-213.2"/>
<polygon fill="black" stroke="black" points="81.77,-213.03 78.48,-202.96 74.78,-212.89 81.77,-213.03"/>
</g>
</g>
</svg>
